<svg width="166" height="263" viewBox="0 0 166 263" fill="none" xmlns="http://www.w3.org/2000/svg">
<g clip-path="url(#clip0_313:480)">
<rect x="76.7051" y="28.0721" width="41.8902" height="41.1243" fill="white" stroke="white"/>
<path d="M97.6627 44.9826C96.8576 44.9826 96.1037 45.2949 95.5329 45.8657C94.9647 46.4366 94.6497 47.1905 94.6497 47.9956C94.6497 48.8007 94.9647 49.5546 95.5329 50.1254C96.1037 50.6936 96.8576 51.0086 97.6627 51.0086C98.4678 51.0086 99.2217 50.6936 99.7926 50.1254C100.361 49.5546 100.676 48.8007 100.676 47.9956C100.676 47.1905 100.361 46.4366 99.7926 45.8657C99.5138 45.5848 99.1819 45.362 98.8163 45.2104C98.4507 45.0588 98.0585 44.9814 97.6627 44.9826V44.9826ZM108.764 51.3236L107.003 49.8185C107.087 49.3069 107.13 48.7845 107.13 48.2649C107.13 47.7452 107.087 47.2201 107.003 46.7112L108.764 45.2061C108.897 45.0922 108.993 44.9405 109.037 44.7712C109.082 44.6019 109.074 44.423 109.015 44.2583L108.991 44.1883C108.506 42.833 107.78 41.5768 106.847 40.4805L106.799 40.424C106.685 40.2908 106.535 40.1951 106.366 40.1495C106.197 40.1038 106.019 40.1103 105.854 40.1682L103.667 40.9464C102.859 40.284 101.96 39.7616 100.985 39.3981L100.563 37.1121C100.531 36.9399 100.447 36.7814 100.323 36.6578C100.199 36.5342 100.04 36.4513 99.868 36.4201L99.7953 36.4066C98.3951 36.1535 96.9196 36.1535 95.5194 36.4066L95.4467 36.4201C95.2744 36.4513 95.1156 36.5342 94.9915 36.6578C94.8675 36.7814 94.7839 36.9399 94.752 37.1121L94.3266 39.4089C93.3611 39.7753 92.4617 40.2964 91.6636 40.9517L89.4611 40.1682C89.2962 40.1099 89.1175 40.1031 88.9486 40.1488C88.7798 40.1945 88.6289 40.2905 88.516 40.424L88.4675 40.4805C87.5366 41.578 86.8107 42.8339 86.3242 44.1883L86.2999 44.2583C86.1788 44.5948 86.2784 44.9718 86.5504 45.2061L88.3329 46.7274C88.2494 47.2336 88.209 47.7506 88.209 48.2622C88.209 48.7791 88.2494 49.2961 88.3329 49.7969L86.5557 51.3183C86.4227 51.4321 86.3275 51.5838 86.2828 51.7531C86.238 51.9224 86.2459 52.1013 86.3053 52.2661L86.3296 52.3361C86.8169 53.6904 87.5358 54.9425 88.4729 56.0438L88.5213 56.1003C88.6346 56.2335 88.7855 56.3292 88.9542 56.3748C89.1229 56.4205 89.3015 56.414 89.4664 56.3561L91.669 55.5726C92.4714 56.2323 93.3653 56.7546 94.332 57.1154L94.7574 59.4122C94.7893 59.5844 94.8728 59.7429 94.9969 59.8665C95.121 59.9901 95.2798 60.073 95.4521 60.1042L95.5248 60.1177C96.9387 60.3722 98.3867 60.3722 99.8007 60.1177L99.8734 60.1042C100.046 60.073 100.204 59.9901 100.329 59.8665C100.453 59.7429 100.536 59.5844 100.568 59.4122L100.991 57.1262C101.966 56.76 102.865 56.2403 103.673 55.578L105.859 56.3561C106.024 56.4144 106.203 56.4212 106.371 56.3755C106.54 56.3298 106.691 56.2338 106.804 56.1003L106.853 56.0438C107.79 54.9371 108.509 53.6904 108.996 52.3361L109.02 52.2661C109.136 51.9322 109.036 51.5579 108.764 51.3236ZM97.6627 52.7292C95.0482 52.7292 92.9291 50.6101 92.9291 47.9956C92.9291 45.3811 95.0482 43.262 97.6627 43.262C100.277 43.262 102.396 45.3811 102.396 47.9956C102.396 50.6101 100.277 52.7292 97.6627 52.7292Z" fill="#93EEC1"/>
<path d="M74.6731 56.6763C74.3348 58.1634 73.9072 60.5058 73.9072 60.5058L76.5879 62.0376C76.5879 62.0376 77.1028 61.366 77.3538 60.8887C77.9278 59.7973 78.0746 59.0575 78.1197 57.8251C78.1583 56.7684 77.7367 55.1445 77.7367 55.1445C77.7367 55.1445 78.4552 54.7035 78.8856 54.3786C79.8982 53.6139 80.8252 53.2983 81.1832 52.0809C81.3942 51.3636 81.6619 50.7406 81.1832 50.1662C80.4355 49.2689 79.917 51.5329 78.8856 52.0809C78.0503 52.5247 76.5879 52.8468 76.5879 52.8468V51.315C76.5879 51.315 75.7977 52.6758 75.439 53.6127C74.9981 54.7644 74.9467 55.4738 74.6731 56.6763Z" fill="#FDE2C9"/>
<path d="M120.245 81.185C118.628 83.03 116.415 86.1634 116.415 86.1634L121.01 91.1417C121.01 91.1417 122.216 90.7575 122.925 90.3758C124.325 89.6223 124.832 88.7856 125.989 87.6952C126.912 86.8247 128.286 85.3975 128.286 85.3975C128.286 85.3975 127.978 86.3171 127.903 86.9293C127.831 87.5231 127.681 87.9056 127.903 88.461C128.139 89.0502 128.42 89.5612 129.052 89.6099C129.995 89.6824 129.598 88.232 129.818 87.3122C130.099 86.1396 130.201 84.6316 130.201 84.6316C130.216 84.1832 130.378 83.5122 130.201 83.0998C130.035 82.711 129.547 82.742 129.435 82.3339C129.311 81.8776 129.679 81.5906 129.435 81.185C129.263 80.8983 129.253 81.0696 129.052 80.8021C128.783 80.4432 128.939 80.0122 128.669 79.6532C128.469 79.3857 128.223 79.3686 127.903 79.2703C127.332 79.0944 127.351 79.2185 126.755 79.2703C125.995 79.3364 124.84 79.6532 124.84 79.6532C124.84 79.6532 126.329 77.6425 127.521 76.5897C128.484 75.7377 129.234 75.5231 130.201 74.6749C130.837 74.1171 131.3 73.9877 131.35 73.1431C131.378 72.671 131.551 73.1615 131.35 72.7602C130.901 71.8629 129.916 72.6319 129.052 73.1431C127.224 74.2263 126.422 75.1704 124.84 76.5897C122.951 78.2843 121.917 79.276 120.245 81.185Z" fill="#FDE2C9"/>
<path d="M73.5256 60.8888L70.0791 67.016L69.6961 69.3136C69.6961 69.3136 70.8522 71.336 71.2279 72.7602L71.2372 72.7952C71.5772 74.0839 71.7862 74.8761 71.6109 76.2067C71.4439 77.4735 71.1712 78.3791 70.462 79.2703C69.8658 80.0196 69.3889 80.3454 68.5473 80.8021C67.7159 81.2532 67.1904 81.4707 66.2496 81.568C65.1977 81.6768 63.569 81.185 63.569 81.185L65.8666 88.844C65.8666 88.844 62.8731 87.8992 60.8883 87.6952C59.2519 87.5269 58.2874 87.3648 56.6759 87.6952C55.4242 87.9517 53.6123 88.844 53.6123 88.844C53.6123 88.844 54.0768 92.9383 54.3782 95.3541C54.7305 98.1776 54.6806 99.5786 55.1441 102.247C55.591 104.82 55.7976 106.959 56.2929 109.523C56.8946 112.638 56.8177 114.713 58.2077 117.565C59.3236 119.854 62.0372 121.778 62.0372 121.778C62.0372 121.778 64.742 124.303 67.0155 125.224C70.2037 126.515 72.4485 126.288 75.8233 125.607C79.233 124.919 83.8652 121.778 83.8652 121.778V116.033V109.523C83.8652 109.523 87.7658 113.062 90.7583 114.502C93.8316 115.98 95.8056 116.888 99.1831 116.416C101.439 116.101 102.538 115.46 104.544 114.502C110.463 111.673 112.012 107.728 116.416 103.013C119.527 99.6821 124.075 94.2053 124.075 94.2053L116.033 86.1634L99.1831 104.162C99.1831 104.162 90.7048 98.9654 85.014 96.12C79.3233 93.2746 70.0791 89.6099 70.0791 89.6099C70.0791 89.6099 74.9246 79.1832 77.738 72.3772C78.9687 69.4002 80.8016 64.7183 80.8016 64.7183C80.8016 64.7183 78.2526 63.2834 76.5892 62.4206C75.4018 61.8047 73.5256 60.8888 73.5256 60.8888Z" fill="white"/>
<path d="M61.6532 60.8886C62.4191 61.2715 62.7983 62.0508 63.1849 62.8033C63.4557 63.3302 62.8021 66.2499 62.8021 66.2499C62.8021 66.2499 61.8035 68.0867 61.2703 69.3134C60.7609 70.4853 60.1214 72.377 60.1214 72.377L59.3555 71.2282C59.3555 71.2282 58.5522 70.2479 57.8237 70.0793C57.0808 69.9074 56.5109 69.9941 55.9089 70.4623C55.4833 70.7933 55.2798 71.2282 55.143 71.6111C55.0063 71.994 55.2794 73.2471 55.526 73.5259C55.7725 73.8046 56.4412 74.0581 57.0578 74.6747C57.6745 75.2913 58.2065 76.2065 58.2066 76.5894C58.2067 76.9724 58.1366 77.6821 57.8237 78.1212C57.2679 78.901 56.6954 79.4897 55.9089 80.036C55.1321 80.5755 54.5339 80.6273 53.6113 80.4189C52.8819 80.2542 52.4467 79.9215 52.0795 79.2701C51.6175 78.4505 50.8825 76.3154 50.2989 74.5071C50.6537 75.6871 51.0407 77.0278 51.3136 78.1212C51.8321 80.1988 52.0138 81.3888 52.4625 83.4825C52.9111 85.5762 53.2212 86.7384 53.6113 88.8438C54.1893 91.9631 54.4385 93.7296 54.7602 96.8857C54.9578 98.8256 55.1431 101.864 55.1431 101.864L52.8454 102.247L51.6966 98.4175L50.9307 101.864C50.9307 101.864 48.3685 102.319 46.7182 102.247C45.0478 102.174 42.5058 101.481 42.5058 101.481C42.5058 101.481 42.3916 97.9772 42.5058 95.7369C42.6824 92.2726 43.2947 90.3791 43.6547 86.9291C44.0749 82.902 44.4206 76.5895 44.4206 76.5895C44.5804 74.1973 44.4206 72.377 44.8035 70.4623C45.1865 68.5475 45.2449 68.2962 46.3353 67.7817C47.1468 67.3987 48.633 67.7817 48.633 67.7817C48.633 67.7817 49.5581 65.5147 50.5477 64.3351C51.6436 63.0288 52.4533 62.3844 53.9943 61.6545C54.8491 61.2496 55.3721 61.1088 56.2919 60.8886C57.4645 60.6078 58.1508 60.4565 59.3555 60.5056C60.2645 60.5427 60.8873 60.5056 61.6532 60.8886Z" fill="#0E77BA"/>
<path d="M63.1849 62.8033C62.7983 62.0508 62.4191 61.2715 61.6532 60.8886C60.8873 60.5056 60.2645 60.5427 59.3555 60.5056C58.1508 60.4565 57.4645 60.6078 56.2919 60.8886C55.3721 61.1088 54.8491 61.2496 53.9943 61.6545C52.4533 62.3844 51.6436 63.0288 50.5477 64.3351C49.5581 65.5147 48.633 67.7817 48.633 67.7817C48.633 67.7817 47.1468 67.3987 46.3353 67.7817C45.2449 68.2962 45.1865 68.5475 44.8035 70.4623C44.4206 72.377 44.5804 74.1973 44.4206 76.5895C44.4206 76.5895 44.0749 82.902 43.6547 86.9291C43.2947 90.3791 42.6824 92.2726 42.5058 95.7369C42.3916 97.9772 42.5058 101.481 42.5058 101.481C42.5058 101.481 45.0478 102.174 46.7182 102.247C48.3685 102.319 50.9307 101.864 50.9307 101.864L51.6966 98.4175L52.8454 102.247L55.1431 101.864C55.1431 101.864 54.9578 98.8256 54.7602 96.8857C54.4385 93.7296 54.1893 91.9631 53.6113 88.8438C53.2212 86.7384 52.9111 85.5762 52.4625 83.4825C52.0138 81.3888 51.8321 80.1988 51.3136 78.1212C50.6719 75.5501 49.3989 71.6111 49.3989 71.6111C49.3989 71.6111 51.2161 77.7383 52.0795 79.2701C52.4467 79.9215 52.8819 80.2542 53.6113 80.4189C54.5339 80.6273 55.1321 80.5755 55.9089 80.036C56.6954 79.4897 57.2679 78.901 57.8237 78.1212C58.1366 77.6821 58.2067 76.9724 58.2066 76.5894C58.2065 76.2065 57.6745 75.2913 57.0578 74.6747C56.4412 74.0581 55.7725 73.8046 55.526 73.5259C55.2794 73.2471 55.0063 71.994 55.143 71.6111C55.2798 71.2282 55.4833 70.7933 55.9089 70.4623C56.5109 69.9941 57.0808 69.9074 57.8237 70.0793C58.5522 70.2479 59.3555 71.2282 59.3555 71.2282L60.1214 72.377C60.1214 72.377 60.7609 70.4853 61.2703 69.3134C61.8035 68.0867 62.8021 66.2499 62.8021 66.2499C62.8021 66.2499 63.4557 63.3302 63.1849 62.8033Z" stroke="#0E77BA"/>
<path d="M53.2284 230.152C52.982 228.828 53.2284 226.705 53.2284 226.705L42.8888 222.11C42.8888 222.11 42.4206 225.899 41.7399 228.237C41.1576 230.237 39.8252 233.215 39.8252 233.215C39.8252 233.215 43.882 235.427 46.7183 235.513C49.8395 235.608 54.3772 233.215 54.3772 233.215C54.3772 233.215 53.4623 231.408 53.2284 230.152Z" fill="#FDE2C9"/>
<path d="M36.761 237.428C37.3505 235.481 39.8246 233.215 39.8246 233.215C39.8246 233.215 44.1212 235.56 47.1006 235.513C49.9377 235.468 53.9936 233.215 53.9936 233.215C53.9936 233.215 57.5176 235.662 60.1208 236.279C62.7402 236.899 64.3219 236.279 67.0139 236.279C68.6589 236.279 69.6494 235.81 71.2263 236.279C72.9761 236.799 74.0179 237.458 75.0558 238.96C75.7733 239.998 75.9345 240.755 76.1948 241.977L76.2046 242.023C76.5785 243.778 76.2046 245.47 75.0558 246.619C73.9069 247.767 64.0381 245.992 56.2913 245.087C48.6232 244.19 37.5268 243.172 36.761 242.023C35.9951 240.874 36.2408 239.145 36.761 237.428Z" fill="#0E77BA" stroke="#0E77BA"/>
<path d="M96.5577 230.229C96.1698 228.94 96.1854 226.802 96.1854 226.802L85.4099 223.351C85.4099 223.351 85.3538 227.169 84.9296 229.566C84.5667 231.617 83.5639 234.722 83.5639 234.722C83.5639 234.722 87.8359 236.483 90.6648 236.262C93.778 236.019 98.0307 233.15 98.0307 233.15C98.0307 233.15 96.9259 231.452 96.5577 230.229Z" fill="#FDE2C9"/>
<path d="M80.9729 239.241C81.3487 237.242 83.5635 234.722 83.5635 234.722C83.5635 234.722 88.0883 236.589 91.0452 236.221C93.8609 235.869 97.6497 233.192 97.6497 233.192C97.6497 233.192 101.417 235.244 104.072 235.576C106.743 235.909 108.249 235.122 110.925 234.831C112.56 234.653 113.494 234.08 115.112 234.376C116.908 234.704 118.015 235.246 119.209 236.627C120.035 237.582 120.277 238.317 120.667 239.504L120.682 239.549C121.243 241.253 121.054 242.975 120.036 244.241C119.018 245.508 109.016 244.809 101.216 244.745C93.4962 244.682 82.3548 244.869 81.4693 243.809C80.5838 242.75 80.6413 241.005 80.9729 239.241Z" fill="#0E77BA" stroke="#0E77BA"/>
<path d="M66.2479 124.841C64.6194 124.016 62.4184 122.16 62.4184 122.16C62.4184 122.16 59.3001 126.614 57.823 129.819C55.8578 134.084 55.1424 141.308 55.1424 141.308L52.4618 176.539L39.0586 219.812L59.7378 229.769L68.1626 180.368L72.3751 155.86L78.8852 180.368L80.417 227.088L103.011 229.769C103.011 229.769 99.6904 211.34 97.6496 199.516C95.0193 184.277 93.8988 175.671 91.1395 160.455C89.4282 151.018 88.2803 145.762 86.5441 136.329C85.9388 133.041 85.0124 127.905 85.0124 127.905L83.8635 121.777C83.8635 121.777 79.8369 124.307 76.9704 125.224C74.6518 125.966 73.2654 126.617 70.8433 126.373C68.9612 126.183 67.9355 125.696 66.2479 124.841Z" fill="#0E77BA"/>
<path d="M66.2485 64.7182C65.4826 63.9523 63.1849 62.8035 63.1849 62.8035C63.1849 62.8035 63.4305 64.4665 63.1849 65.4841C62.9495 66.4593 62.4564 66.8709 62.036 67.7818C61.1634 69.6732 60.1213 72.7601 60.1213 72.7601C60.1213 72.7601 59.3554 71.2283 58.9725 70.8454C58.5895 70.4624 57.8236 70.0795 57.0577 70.0795C56.2918 70.0795 55.5259 70.4624 55.143 71.2283C54.76 71.9942 54.76 72.7601 55.5259 73.526C56.2918 74.2919 57.0577 74.2919 57.4407 75.0578C57.8236 75.8237 58.4149 76.4329 58.2066 77.3555C58.0419 78.0849 57.5509 78.3253 57.0577 78.8873C56.6392 79.3642 56.4299 79.6741 55.9089 80.0361C55.2475 80.4957 53.9941 80.802 53.9941 80.802L56.2918 87.6951C56.2918 87.6951 59.1029 87.5028 60.8872 87.6951C62.871 87.9089 65.8655 88.8439 65.8655 88.8439L63.5678 81.185C63.5678 81.185 66.2346 81.748 67.7803 81.185C68.985 80.7462 70.0707 79.6605 70.457 79.2741L70.4609 79.2702C70.8439 78.8873 71.6097 76.9725 71.6097 75.8237C71.6097 74.6749 71.2268 72.7601 70.8439 71.6113C70.4609 70.4624 69.695 69.3136 69.695 69.3136C69.695 69.3136 70.4609 67.3988 70.078 67.0159C69.695 66.6329 68.5462 67.3988 68.5462 67.3988C68.5462 67.3988 67.0144 65.4841 66.2485 64.7182Z" fill="#FDE2C9"/>
</g>
<defs>
<clipPath id="clip0_313:480">
<rect width="166" height="263" fill="white"/>
</clipPath>
</defs>
</svg>
