<svg width="1020" height="502" viewBox="0 0 1020 502" fill="none" xmlns="http://www.w3.org/2000/svg">
<g clip-path="url(#clip0_308:427)">
<rect width="1020" height="502" fill="#003869"/>
<path d="M0 0H1020V502H0V0Z" fill="#003869"/>
<path d="M509.488 122.88C514.445 105.36 486.701 83.1044 470.674 80.4203C454.647 77.7362 447.574 79.2752 439.149 89.1046C430.724 98.934 423.524 116.117 432.368 133.749C441.211 151.381 458.799 159.505 470.063 155.765C481.328 152.025 504.532 140.4 509.488 122.88Z" fill="white"/>
<path d="M939.488 216.88C944.445 199.36 916.701 177.104 900.674 174.42C884.647 171.736 877.574 173.275 869.149 183.105C860.724 192.934 853.524 210.117 862.368 227.749C871.211 245.381 888.799 253.505 900.063 249.765C911.328 246.025 934.532 234.4 939.488 216.88Z" fill="#DEE5EB"/>
<path d="M859.43 412.777C857.018 379.257 889.342 372.388 898.918 370.952C908.494 369.516 922.028 370.182 930.291 380.146C938.553 390.111 945.472 407.408 936.346 424.894C927.219 442.381 916.772 444.706 898.307 446.297C879.842 447.888 861.842 446.297 859.43 412.777Z" fill="white"/>
<path d="M306.73 489.919C302.889 472.452 311 460.5 323.5 453C336 445.5 356.818 445 365.395 457.425C373.972 469.849 377.917 484.473 370.344 501.847C362.771 519.222 348.107 527.028 338.847 523.149C329.587 519.27 310.57 507.386 306.73 489.919Z" fill="white"/>
<path d="M365.817 269.35C346.348 268.678 337.742 279.299 337.742 279.299C337.742 279.299 323.85 291.398 324.51 310.128C325.169 328.859 327.503 330.913 333.803 343.176C340.103 355.438 369.063 369.513 373.528 369.142C377.994 368.771 390.969 369.691 401.995 360.825C413.022 351.959 423.655 341.461 424.602 324.78C425.548 308.098 419.09 303.975 408.243 290.861C397.395 277.747 385.286 270.022 365.817 269.35Z" fill="#DEE5EB"/>
</g>
<defs>
<clipPath id="clip0_308:427">
<rect width="1020" height="502" fill="white"/>
</clipPath>
</defs>
</svg>
