<svg width="472" height="437" viewBox="0 0 472 437" fill="none" xmlns="http://www.w3.org/2000/svg">
<path d="M467.263 218.767C491.974 131.418 353.654 20.4631 273.751 7.0812C193.848 -6.30074 158.581 1.37198 116.578 50.3775C74.575 99.3831 38.6795 185.049 82.7705 272.956C126.862 360.862 214.547 401.368 270.706 382.721C326.865 364.075 442.551 306.116 467.263 218.767Z" fill="#D5E8F8"/>
<rect x="145.467" y="74.6387" width="64.5491" height="63.3786" rx="19.5" fill="#002F76" stroke="#F1F8FF"/>
<path d="M177.762 100.747C176.532 100.747 175.379 101.224 174.507 102.097C173.639 102.969 173.157 104.121 173.157 105.352C173.157 106.582 173.639 107.735 174.507 108.607C175.379 109.475 176.532 109.957 177.762 109.957C178.992 109.957 180.145 109.475 181.017 108.607C181.885 107.735 182.367 106.582 182.367 105.352C182.367 104.121 181.885 102.969 181.017 102.097C180.591 101.667 180.084 101.327 179.525 101.095C178.966 100.864 178.367 100.745 177.762 100.747V100.747ZM194.729 110.438L192.037 108.138C192.165 107.356 192.231 106.558 192.231 105.763C192.231 104.969 192.165 104.167 192.037 103.389L194.729 101.089C194.932 100.915 195.077 100.683 195.146 100.424C195.214 100.165 195.202 99.8919 195.111 99.6401L195.074 99.5331C194.334 97.462 193.224 95.5421 191.799 93.8666L191.725 93.7802C191.551 93.5767 191.321 93.4304 191.063 93.3607C190.805 93.2909 190.532 93.3008 190.28 93.3893L186.939 94.5785C185.704 93.5662 184.33 92.7679 182.84 92.2123L182.194 88.7186C182.145 88.4554 182.018 88.2133 181.828 88.0244C181.638 87.8355 181.396 87.7088 181.132 87.661L181.021 87.6405C178.881 87.2536 176.626 87.2536 174.486 87.6405L174.375 87.661C174.112 87.7088 173.869 87.8355 173.68 88.0244C173.49 88.2133 173.362 88.4554 173.314 88.7186L172.663 92.2288C171.188 92.7888 169.813 93.5852 168.593 94.5868L165.227 93.3893C164.975 93.3001 164.702 93.2898 164.444 93.3596C164.186 93.4295 163.956 93.5762 163.783 93.7802L163.709 93.8666C162.286 95.5439 161.177 97.4633 160.433 99.5331L160.396 99.6401C160.211 100.155 160.363 100.731 160.779 101.089L163.503 103.414C163.376 104.187 163.314 104.977 163.314 105.759C163.314 106.549 163.376 107.339 163.503 108.105L160.787 110.43C160.584 110.604 160.438 110.836 160.37 111.095C160.302 111.353 160.314 111.627 160.404 111.878L160.441 111.985C161.186 114.055 162.285 115.969 163.717 117.652L163.791 117.738C163.964 117.942 164.195 118.088 164.453 118.158C164.711 118.228 164.983 118.218 165.236 118.129L168.602 116.932C169.828 117.94 171.194 118.738 172.672 119.29L173.322 122.8C173.37 123.063 173.498 123.305 173.688 123.494C173.877 123.683 174.12 123.81 174.383 123.858L174.495 123.878C176.655 124.267 178.868 124.267 181.029 123.878L181.14 123.858C181.404 123.81 181.646 123.683 181.836 123.494C182.026 123.305 182.153 123.063 182.202 122.8L182.848 119.306C184.338 118.747 185.712 117.952 186.947 116.94L190.288 118.129C190.54 118.218 190.813 118.229 191.071 118.159C191.329 118.089 191.56 117.942 191.733 117.738L191.807 117.652C193.239 115.961 194.338 114.055 195.082 111.985L195.119 111.878C195.296 111.368 195.144 110.796 194.729 110.438ZM177.762 112.586C173.766 112.586 170.528 109.348 170.528 105.352C170.528 101.356 173.766 98.1175 177.762 98.1175C181.758 98.1175 184.996 101.356 184.996 105.352C184.996 109.348 181.758 112.586 177.762 112.586Z" fill="#D5E8F8"/>
<path d="M142.626 118.619C142.109 120.891 141.455 124.471 141.455 124.471L145.552 126.812C145.552 126.812 146.339 125.786 146.722 125.056C147.6 123.388 147.824 122.258 147.893 120.374C147.952 118.759 147.308 116.277 147.308 116.277C147.308 116.277 148.406 115.604 149.063 115.107C150.611 113.938 152.028 113.456 152.575 111.595C152.897 110.499 153.307 109.547 152.575 108.669C151.432 107.298 150.64 110.758 149.063 111.595C147.787 112.274 145.552 112.766 145.552 112.766V110.425C145.552 110.425 144.344 112.505 143.796 113.936C143.122 115.697 143.044 116.781 142.626 118.619Z" fill="#FDE2C9"/>
<path d="M212.272 156.075C209.801 158.895 206.419 163.684 206.419 163.684L213.442 171.292C213.442 171.292 215.285 170.705 216.368 170.121C218.508 168.97 219.282 167.691 221.05 166.025C222.462 164.694 224.562 162.513 224.562 162.513C224.562 162.513 224.09 163.919 223.977 164.854C223.867 165.762 223.637 166.346 223.977 167.195C224.337 168.096 224.766 168.877 225.733 168.951C227.174 169.062 226.566 166.845 226.903 165.439C227.332 163.647 227.488 161.343 227.488 161.343C227.511 160.657 227.758 159.632 227.488 159.002C227.234 158.407 226.488 158.455 226.318 157.831C226.128 157.134 226.69 156.695 226.318 156.075C226.055 155.637 226.039 155.899 225.733 155.49C225.321 154.941 225.559 154.283 225.147 153.734C224.841 153.325 224.465 153.299 223.977 153.149C223.103 152.88 223.132 153.07 222.221 153.149C221.06 153.25 219.295 153.734 219.295 153.734C219.295 153.734 221.571 150.661 223.391 149.052C224.865 147.75 226.01 147.422 227.488 146.126C228.46 145.273 229.168 145.075 229.244 143.785C229.287 143.063 229.551 143.813 229.244 143.2C228.558 141.828 227.052 143.003 225.733 143.785C222.938 145.44 221.713 146.883 219.295 149.052C216.407 151.642 214.828 153.158 212.272 156.075Z" fill="#FDE2C9"/>
<path d="M122.727 125.056C123.898 125.642 124.477 126.833 125.068 127.983C125.482 128.788 124.483 133.25 124.483 133.25C124.483 133.25 122.957 136.057 122.142 137.932C121.364 139.723 120.386 142.614 120.386 142.614L119.216 140.858C119.216 140.858 117.988 139.36 116.875 139.103C115.739 138.84 114.868 138.972 113.948 139.688C113.298 140.194 112.987 140.858 112.778 141.444C112.569 142.029 112.986 143.944 113.363 144.37C113.74 144.796 114.762 145.183 115.704 146.126C116.647 147.068 117.46 148.467 117.46 149.052C117.46 149.637 117.353 150.722 116.875 151.393C116.025 152.585 115.15 153.484 113.948 154.319C112.761 155.144 111.847 155.223 110.437 154.905C109.322 154.653 108.657 154.144 108.096 153.149C107.39 151.896 106.266 148.633 105.374 145.869C105.917 147.673 106.508 149.722 106.925 151.393C107.718 154.568 107.995 156.387 108.681 159.587C109.367 162.786 109.841 164.563 110.437 167.78C111.32 172.548 111.701 175.247 112.193 180.071C112.495 183.035 112.778 187.679 112.778 187.679L109.266 188.264L107.511 182.412L106.34 187.679C106.34 187.679 102.424 188.375 99.9021 188.264C97.3492 188.153 93.4643 187.094 93.4643 187.094C93.4643 187.094 93.2898 181.739 93.4643 178.315C93.7341 173.02 94.6698 170.127 95.2201 164.854C95.8623 158.699 96.3906 149.052 96.3906 149.052C96.6348 145.396 96.3906 142.614 96.9758 139.688C97.5611 136.762 97.6504 136.377 99.3169 135.591C100.557 135.006 102.828 135.591 102.828 135.591C102.828 135.591 104.242 132.126 105.755 130.324C107.43 128.327 108.667 127.342 111.022 126.227C112.328 125.608 113.128 125.393 114.534 125.056C116.326 124.627 117.375 124.396 119.216 124.471C120.605 124.528 121.557 124.471 122.727 125.056Z" fill="#002F76"/>
<path d="M125.068 127.983C124.477 126.833 123.898 125.642 122.727 125.056C121.557 124.471 120.605 124.528 119.216 124.471C117.375 124.396 116.326 124.627 114.534 125.056C113.128 125.393 112.328 125.608 111.022 126.227C108.667 127.342 107.43 128.327 105.755 130.324C104.242 132.126 102.828 135.591 102.828 135.591C102.828 135.591 100.557 135.006 99.3169 135.591C97.6504 136.377 97.5611 136.762 96.9758 139.688C96.3906 142.614 96.6348 145.396 96.3906 149.052C96.3906 149.052 95.8623 158.699 95.2201 164.854C94.6698 170.127 93.7341 173.02 93.4643 178.315C93.2898 181.739 93.4643 187.094 93.4643 187.094C93.4643 187.094 97.3492 188.153 99.9021 188.264C102.424 188.375 106.34 187.679 106.34 187.679L107.511 182.412L109.266 188.264L112.778 187.679C112.778 187.679 112.495 183.035 112.193 180.071C111.701 175.247 111.32 172.548 110.437 167.78C109.841 164.563 109.367 162.786 108.681 159.587C107.995 156.387 107.718 154.568 106.925 151.393C105.944 147.464 103.999 141.444 103.999 141.444C103.999 141.444 106.776 150.808 108.096 153.149C108.657 154.144 109.322 154.653 110.437 154.905C111.847 155.223 112.761 155.144 113.948 154.319C115.15 153.484 116.025 152.585 116.875 151.393C117.353 150.722 117.46 149.637 117.46 149.052C117.46 148.467 116.647 147.068 115.704 146.126C114.762 145.183 113.74 144.796 113.363 144.37C112.986 143.944 112.569 142.029 112.778 141.444C112.987 140.858 113.298 140.194 113.948 139.688C114.868 138.972 115.739 138.84 116.875 139.103C117.988 139.36 119.216 140.858 119.216 140.858L120.386 142.614C120.386 142.614 121.364 139.723 122.142 137.932C122.957 136.057 124.483 133.25 124.483 133.25C124.483 133.25 125.482 128.788 125.068 127.983Z" stroke="#002F76"/>
<path d="M109.851 381.741C109.475 379.719 109.851 376.474 109.851 376.474L94.0493 369.451C94.0493 369.451 93.3337 375.243 92.2935 378.815C91.4035 381.872 89.3672 386.423 89.3672 386.423C89.3672 386.423 95.5673 389.804 99.9019 389.935C104.672 390.08 111.607 386.423 111.607 386.423C111.607 386.423 110.209 383.661 109.851 381.741Z" fill="#FDE2C9"/>
<path d="M84.685 392.861C85.586 389.886 89.3671 386.423 89.3671 386.423C89.3671 386.423 95.9336 390.007 100.487 389.935C104.823 389.866 111.022 386.423 111.022 386.423C111.022 386.423 116.407 390.163 120.386 391.106C124.389 392.054 126.807 391.106 130.921 391.106C133.435 391.106 134.949 390.389 137.358 391.106C140.033 391.901 141.625 392.907 143.211 395.202C144.308 396.789 144.554 397.946 144.952 399.814L144.967 399.884C145.538 402.567 144.967 405.152 143.211 406.908C141.455 408.663 126.373 405.951 114.533 404.567C102.814 403.196 85.8555 401.64 84.685 399.884C83.5145 398.129 83.8901 395.486 84.685 392.861Z" fill="#0A4E85"/>
<path d="M176.072 381.859C175.479 379.889 175.503 376.623 175.503 376.623L159.035 371.348C159.035 371.348 158.949 377.183 158.301 380.847C157.746 383.981 156.213 388.727 156.213 388.727C156.213 388.727 162.742 391.417 167.066 391.08C171.824 390.708 178.323 386.324 178.323 386.324C178.323 386.324 176.634 383.729 176.072 381.859Z" fill="#FDE2C9"/>
<path d="M152.254 395.632C152.828 392.577 156.213 388.726 156.213 388.726C156.213 388.726 163.128 391.58 167.647 391.016C171.951 390.479 177.741 386.387 177.741 386.387C177.741 386.387 183.499 389.523 187.556 390.03C191.639 390.541 193.939 389.337 198.029 388.893C200.529 388.621 201.956 387.745 204.43 388.197C207.174 388.699 208.866 389.527 210.69 391.638C211.952 393.097 212.322 394.22 212.919 396.035L212.942 396.103C213.8 398.708 213.511 401.339 211.955 403.275C210.399 405.21 195.112 404.142 183.192 404.045C171.393 403.949 154.366 404.233 153.013 402.614C151.659 400.995 151.747 398.328 152.254 395.632Z" fill="#0A4E85"/>
<path d="M129.75 220.795C127.261 219.534 123.897 216.698 123.897 216.698C123.897 216.698 119.131 223.504 116.874 228.403C113.871 234.921 112.777 245.961 112.777 245.961L108.68 299.805L88.1963 365.939L119.8 381.156L132.676 305.657L139.114 268.201L149.063 305.657L151.404 377.059L185.935 381.156C185.935 381.156 180.86 352.991 177.741 334.92C173.721 311.63 172.009 298.479 167.792 275.224C165.176 260.801 163.422 252.768 160.769 238.353C159.843 233.326 158.428 225.477 158.428 225.477L156.672 216.113C156.672 216.113 150.518 219.978 146.137 221.38C142.593 222.514 140.475 223.51 136.773 223.136C133.896 222.845 132.329 222.101 129.75 220.795Z" fill="#0A4E85"/>
<path d="M140.87 125.056L135.603 134.421L135.017 137.932C135.017 137.932 136.784 141.023 137.358 143.199L137.373 143.253C137.892 145.222 138.212 146.433 137.944 148.467C137.689 150.403 137.272 151.787 136.188 153.149C135.277 154.294 134.548 154.792 133.262 155.49C131.991 156.179 131.188 156.512 129.75 156.66C128.143 156.827 125.653 156.075 125.653 156.075L129.165 167.78C129.165 167.78 124.59 166.336 121.556 166.025C119.056 165.767 117.582 165.52 115.119 166.025C113.206 166.417 110.437 167.78 110.437 167.78C110.437 167.78 111.146 174.038 111.607 177.73C112.145 182.045 112.069 184.186 112.778 188.264C113.461 192.197 113.776 195.465 114.533 199.384C115.453 204.145 115.335 207.317 117.46 211.675C119.165 215.174 123.312 218.113 123.312 218.113C123.312 218.113 127.446 221.973 130.921 223.38C135.793 225.353 139.224 225.007 144.382 223.965C149.593 222.913 156.672 218.113 156.672 218.113V209.334V199.384C156.672 199.384 162.633 204.793 167.207 206.993C171.904 209.252 174.921 210.639 180.082 209.919C183.53 209.438 185.21 208.458 188.276 206.993C197.322 202.671 199.688 196.64 206.419 189.435C211.175 184.344 218.124 175.974 218.124 175.974L205.834 163.684L180.082 191.191C180.082 191.191 167.125 183.249 158.428 178.9C149.731 174.552 135.603 168.951 135.603 168.951C135.603 168.951 143.008 153.016 147.308 142.614C149.189 138.064 151.99 130.909 151.99 130.909C151.99 130.909 148.094 128.716 145.552 127.397C143.737 126.456 140.87 125.056 140.87 125.056Z" fill="white" stroke="white"/>
<path d="M129.75 130.909C128.579 129.738 125.068 127.983 125.068 127.983C125.068 127.983 125.443 130.524 125.068 132.079C124.708 133.57 123.954 134.199 123.312 135.591C121.978 138.482 120.386 143.199 120.386 143.199C120.386 143.199 119.215 140.858 118.63 140.273C118.045 139.688 116.874 139.103 115.704 139.103C114.533 139.103 113.363 139.688 112.777 140.858C112.192 142.029 112.192 143.199 113.363 144.37C114.533 145.54 115.704 145.54 116.289 146.711C116.874 147.882 117.778 148.813 117.459 150.223C117.208 151.337 116.457 151.705 115.704 152.564C115.064 153.292 114.744 153.766 113.948 154.319C112.937 155.022 111.021 155.49 111.021 155.49L114.533 166.025C114.533 166.025 118.829 165.731 121.556 166.025C124.588 166.351 129.165 167.78 129.165 167.78L125.653 156.075C125.653 156.075 129.729 156.936 132.091 156.075C133.932 155.405 135.591 153.745 136.182 153.155L136.188 153.149C136.773 152.564 137.943 149.637 137.943 147.882C137.943 146.126 137.358 143.199 136.773 141.444C136.188 139.688 135.017 137.932 135.017 137.932C135.017 137.932 136.188 135.006 135.602 134.421C135.017 133.835 133.261 135.006 133.261 135.006C133.261 135.006 130.92 132.079 129.75 130.909Z" fill="#FDE2C9"/>
</svg>
