<svg width="69" height="68" viewBox="0 0 69 68" fill="none" xmlns="http://www.w3.org/2000/svg">
<rect x="3.95658" y="0.526329" width="64.5491" height="63.3786" rx="19.5" transform="rotate(3.10257 3.95658 0.526329)" fill="white" stroke="#F1F8FF"/>
<path d="M48.98 30.0986L48.7152 35.4179C46.6512 34.2305 44.2639 33.7277 41.8963 33.9815C39.5287 34.2354 37.3023 35.2329 35.5369 36.8309C33.7715 38.4289 32.5578 40.5451 32.0701 42.8759C31.5823 45.2066 31.8456 47.6319 32.8221 49.8037L24.434 49.3861C23.0775 49.3186 21.8034 48.715 20.8919 47.7081C19.9805 46.7011 19.5064 45.3733 19.5739 44.0168L20.3377 28.6728L48.98 30.0986ZM44.2727 21.6605C45.6292 21.728 46.9033 22.3316 47.8148 23.3386C48.7262 24.3455 49.2003 25.6733 49.1328 27.0298L49.0819 28.0527L20.4396 26.6269L20.4905 25.604C20.558 24.2474 21.1617 22.9733 22.1686 22.0619C23.1755 21.1504 24.5033 20.6763 25.8598 20.7439L44.2727 21.6605ZM42.0265 41.0327C42.0434 40.6935 42.1943 40.375 42.446 40.1471C42.6978 39.9193 43.0297 39.8008 43.3688 39.8176C43.708 39.8345 44.0265 39.9854 44.2543 40.2372C44.4822 40.4889 44.6007 40.8208 44.5838 41.16C44.567 41.4991 44.4161 41.8176 44.1643 42.0455C43.9126 42.2733 43.5806 42.3919 43.2415 42.375C42.9024 42.3581 42.5839 42.2072 42.356 41.9555C42.1281 41.7037 42.0096 41.3718 42.0265 41.0327ZM43.9207 49.3307C43.9072 49.602 43.7865 49.8569 43.5851 50.0392C43.3837 50.2214 43.1182 50.3163 42.8469 50.3028C42.5756 50.2893 42.3207 50.1685 42.1385 49.9671C41.9562 49.7658 41.8613 49.5002 41.8749 49.2289L42.0785 45.1371C42.0921 44.8658 42.2128 44.611 42.4142 44.4287C42.6156 44.2464 42.8811 44.1516 43.1524 44.1651C43.4237 44.1786 43.6785 44.2994 43.8608 44.5007C44.0431 44.7021 44.1379 44.9677 44.1244 45.239L43.9207 49.3307ZM33.895 44.7298C34.0166 42.2881 35.1031 39.9947 36.9156 38.3541C38.7281 36.7135 41.1181 35.8601 43.5598 35.9816C46.0015 36.1032 48.2949 37.1897 49.9355 39.0022C51.5761 40.8147 52.4295 43.2047 52.3079 45.6464C52.1864 48.0881 51.0998 50.3815 49.2874 52.0221C47.4749 53.6627 45.0849 54.5161 42.6432 54.3945C40.2015 54.273 37.9081 53.1864 36.2675 51.3739C34.6269 49.5614 33.7735 47.1715 33.895 44.7298ZM35.9409 44.8316C35.8941 45.7719 36.033 46.7123 36.3496 47.599C36.6662 48.4856 37.1543 49.3013 37.7861 49.9993C38.418 50.6973 39.1811 51.2641 40.0319 51.6672C40.8828 52.0703 41.8047 52.3018 42.745 52.3486C43.6854 52.3954 44.6257 52.2566 45.5124 51.94C46.3991 51.6234 47.2147 51.1352 47.9127 50.5034C48.6107 49.8716 49.1775 49.1085 49.5806 48.2576C49.9837 47.4068 50.2152 46.4849 50.2621 45.5445C50.3566 43.6454 49.6928 41.7865 48.4168 40.3768C47.1408 38.9671 45.357 38.122 43.4579 38.0275C41.5588 37.933 39.7 38.5967 38.2903 39.8727C36.8805 41.1487 36.0355 42.9325 35.9409 44.8316Z" fill="#002F76"/>
</svg>
