<svg width="348" height="361" viewBox="0 0 348 361" fill="none" xmlns="http://www.w3.org/2000/svg">
<path d="M338.593 224.745C369.314 124.171 307.642 18.2587 219.885 4.62155C132.128 -9.0156 71.3011 33.0647 36.1895 70.9348C1.07796 108.805 -10.8512 207.974 16.2683 257.907C43.3878 307.84 98.9753 357.975 177.114 359.242C255.252 360.508 307.871 325.318 338.593 224.745Z" fill="#40B5EB" fill-opacity="0.8"/>
<path d="M132 185.531L133.406 186.938C134.156 186.562 134.766 185.672 135.234 184.266C136.453 183.797 139.312 181.406 143.812 177.094L146.906 175.406C151.969 171.844 154.5 168.844 154.5 166.406L153.938 163.031L154.781 159.234C152.625 157.172 150.844 155.25 149.438 153.469C148.031 151.594 146.156 150.656 143.812 150.656C143.438 150.656 142.453 150.938 140.859 151.5H140.297C139.078 151.5 137.672 150.844 136.078 149.531L131.156 150.094L127.641 149.812C127.453 149.812 126.891 150 125.953 150.375C125.016 150.75 124.453 150.938 124.266 150.938L121.594 149.812H121.312L119.344 150.938C118.969 151.125 117.422 151.219 114.703 151.219L94.875 153.469C92.9062 153.75 90.4219 152.906 87.4219 150.938L86.1562 150.375C84.2812 149.438 82.3125 147.422 80.25 144.328C78.2812 141.234 77.2969 138.656 77.2969 136.594C77.2969 133.125 78.2344 131.391 80.1094 131.391C80.7656 131.391 81.2812 131.484 81.6562 131.672H82.7812C83.5312 131.672 84.9375 131.016 87 129.703C89.1562 128.297 91.9219 127.547 95.2969 127.453C98.6719 127.359 104.766 125.578 113.578 122.109C114.516 121.547 115.875 121.219 117.656 121.125C119.531 121.031 120.984 120.047 122.016 118.172C123.141 116.203 124.641 115.219 126.516 115.219H127.922C128.953 115.219 130.406 114.75 132.281 113.812H133.969C135.281 112.969 138.656 111.422 144.094 109.172L147.609 107.484C149.109 106.734 150.516 106.125 151.828 105.656L152.109 104.812C150.797 104.063 149.766 103.688 149.016 103.688L143.812 105.094H143.25L141.281 104.25H140.578C138.891 105.375 137.953 105.938 137.766 105.938C137.391 105.938 136.734 105.469 135.797 104.531H135.234C134.953 104.531 134.391 104.953 133.547 105.797C132.703 106.547 132.094 106.922 131.719 106.922C131.344 106.922 130.969 106.687 130.594 106.219C130.594 105.844 130.406 105.656 130.031 105.656L127.922 106.641C126.797 106.641 125.625 106.313 124.406 105.656C123.281 104.906 122.438 104.531 121.875 104.531C121.5 104.531 120.844 105.047 119.906 106.078C118.969 107.016 117.891 107.484 116.672 107.484C114.422 107.484 112.734 107.203 111.609 106.641C110.578 105.984 109.875 105.656 109.5 105.656C108.188 105.656 105.656 106.172 101.906 107.203C98.1562 108.141 95.8125 108.609 94.875 108.609H94.5938L92.2031 108.328C89.3906 108.328 86.25 109.078 82.7812 110.578H81.9375C80.7188 110.578 79.4531 110.016 78.1406 108.891L74.9062 106.922C74.25 106.359 73.0312 104.719 71.25 102C69.4688 99.1875 68.5781 97.4531 68.5781 96.7969C68.5781 95.4844 69.0938 94.125 70.125 92.7188C71.25 91.2187 72.2812 90.4688 73.2188 90.4688C73.5938 90.4688 74.2031 90.6562 75.0469 91.0312C75.9844 91.4063 76.7344 91.5938 77.2969 91.5938C78.6094 91.5938 79.6875 91.5 80.5312 91.3125C81.4688 91.125 82.3125 91.0312 83.0625 91.0312C87.6562 91.0312 90.5156 91.2187 91.6406 91.5938H93.1875C93.375 91.4063 93.6562 91.3125 94.0312 91.3125C94.4062 91.3125 94.875 91.7344 95.4375 92.5781C96 93.4219 96.4688 93.8438 96.8438 93.8438C100.781 93.8438 103.078 93.375 103.734 92.4375C104.484 91.5 105 91.0312 105.281 91.0312C105.656 91.0312 106.219 91.5 106.969 92.4375L108.656 92.1562C108.844 92.1562 109.125 92.25 109.5 92.4375H115.547L132 91.875L136.078 92.4375C142.734 92.4375 146.766 92.1562 148.172 91.5938C149.109 91.7812 150.516 91.875 152.391 91.875H155.062L156.469 92.7188H156.75C156.938 92.7188 157.594 92.4375 158.719 91.875H159.141C159.328 91.875 159.844 92.0156 160.688 92.2969C161.531 92.5781 163.031 92.8125 165.188 93C172.031 97.2188 175.453 102.609 175.453 109.172C175.453 113.016 174.328 115.313 172.078 116.062C169.922 116.812 168.375 117.656 167.438 118.594C166.5 119.438 165.656 119.953 164.906 120.141C164.25 120.328 162.938 120.984 160.969 122.109C159.094 123.234 157.594 124.125 156.469 124.781C155.344 125.344 154.406 125.859 153.656 126.328C153 126.797 152.203 127.031 151.266 127.031C151.078 127.031 150.141 127.359 148.453 128.016C146.859 128.672 145.406 129 144.094 129C142.688 129 141.609 129.516 140.859 130.547C140.109 131.484 138.891 131.953 137.203 131.953C136.828 131.953 136.172 131.859 135.234 131.672C134.578 132.609 133.688 133.453 132.562 134.203C133.969 135.234 136.266 136.125 139.453 136.875L144.938 138.562C145.781 138.75 147.516 140.391 150.141 143.484L152.109 144.328C154.359 145.922 155.906 147.562 156.75 149.25L159.984 151.781C161.016 152.438 161.719 154.219 162.094 157.125L163.078 165.281C163.078 165.844 162.609 166.828 161.672 168.234C162.984 171.516 163.641 173.344 163.641 173.719C163.641 174.281 163.266 175.406 162.516 177.094L162.234 177.938C162.234 180.281 161.203 182.531 159.141 184.688L158.438 186.375C157.688 188.625 156.703 190.266 155.484 191.297C154.266 192.234 153.234 193.453 152.391 194.953C151.641 196.359 150.609 197.438 149.297 198.188C147.984 198.938 146.531 200.344 144.938 202.406C143.438 204.375 141.703 205.359 139.734 205.359L138.609 205.922C136.734 209.016 135.141 210.609 133.828 210.703C132.609 210.797 131.25 210.984 129.75 211.266L126.375 211.969C125.719 212.062 125.203 212.625 124.828 213.656C124.453 214.688 123.984 215.391 123.422 215.766C119.578 217.266 116.625 218.906 114.562 220.688C112.594 222.375 110.719 223.219 108.938 223.219C108.375 223.219 107.672 222.891 106.828 222.234C105.984 221.578 105.328 221.25 104.859 221.25C104.109 221.25 102.516 222.328 100.078 224.484C97.7344 226.547 96.375 227.578 96 227.578L93.1875 227.297L86.2969 229.266C85.2656 229.266 84.1406 229.734 82.9219 230.672C81.7031 231.609 80.6719 232.078 79.8281 232.078C79.4531 232.078 78.5156 231.516 77.0156 230.391C77.0156 230.203 76.8281 230.109 76.4531 230.109C75.4219 230.109 73.6406 231.281 71.1094 233.625C68.6719 235.875 65.7188 237 62.25 237L59.1562 236.719L54.5156 237.281C53.1094 237.281 51.8438 237 50.7188 236.438C48.6562 237.562 47.5312 238.125 47.3438 238.125C47.1562 238.125 46.3594 237.844 44.9531 237.281C43.6406 236.719 42.375 236.344 41.1562 236.156C39.9375 235.969 38.9062 235.125 38.0625 233.625L33 223.922C31.4062 220.641 30.6094 217.828 30.6094 215.484C30.6094 212.953 31.9688 211.688 34.6875 211.688C34.875 211.688 35.5312 211.969 36.6562 212.531H36.9375C37.3125 212.531 37.9219 212.156 38.7656 211.406C39.7031 210.656 42.8438 210.281 48.1875 210.281C48.5625 210.281 49.4062 210.656 50.7188 211.406C50.7188 211.594 50.8594 211.688 51.1406 211.688L57.75 211.125C60.5625 211.125 62.9531 210.469 64.9219 209.156C66.8906 207.844 68.8594 207.094 70.8281 206.906L77.8594 205.922L80.1094 206.203L91.2188 203.25C99.2812 201.281 104.156 199.688 105.844 198.469L113.859 194.391C115.828 193.453 117.844 192.844 119.906 192.562C122.062 192.281 123.609 191.531 124.547 190.312L125.391 189.469H127.922C128.297 189.469 128.906 189.281 129.75 188.906C130.031 187.688 130.781 186.562 132 185.531Z" fill="white"/>
<path d="M227.072 114.408C226.272 114.792 225.44 115.176 224.576 115.56C223.744 115.912 222.848 116.232 221.888 116.52C220.928 116.776 219.872 116.984 218.72 117.144C217.6 117.304 216.368 117.384 215.024 117.384C210.736 117.384 207.424 116.424 205.088 114.504C202.784 112.584 201.632 109.384 201.632 104.904C201.632 102.312 202.032 99.88 202.832 97.608C203.632 95.304 204.816 93.304 206.384 91.608C207.952 89.88 209.888 88.52 212.192 87.528C214.496 86.536 217.136 86.04 220.112 86.04C221.52 86.04 222.8 86.136 223.952 86.328C225.136 86.52 226.192 86.776 227.12 87.096C228.08 87.384 228.928 87.704 229.664 88.056C230.432 88.408 231.12 88.744 231.728 89.064L230 97.992H221.36C221.392 97.672 221.424 97.256 221.456 96.744C221.52 96.232 221.568 95.72 221.6 95.208C221.632 94.664 221.664 94.136 221.696 93.624C221.728 93.112 221.744 92.68 221.744 92.328C221.744 92.072 221.728 91.784 221.696 91.464C221.664 91.112 221.584 90.776 221.456 90.456C221.328 90.136 221.12 89.88 220.832 89.688C220.576 89.464 220.224 89.352 219.776 89.352C218.944 89.352 218.176 89.704 217.472 90.408C216.8 91.08 216.192 91.992 215.648 93.144C215.104 94.264 214.624 95.544 214.208 96.984C213.792 98.424 213.44 99.896 213.152 101.4C212.896 102.872 212.688 104.328 212.528 105.768C212.4 107.208 212.336 108.472 212.336 109.56C212.336 109.88 212.352 110.28 212.384 110.76C212.416 111.24 212.512 111.704 212.672 112.152C212.832 112.6 213.072 112.984 213.392 113.304C213.744 113.624 214.208 113.784 214.784 113.784C215.776 113.784 216.736 113.176 217.664 111.96C218.592 110.712 219.408 108.504 220.112 105.336H228.992L227.072 114.408ZM260.56 93.768C260.56 95.656 260.032 97.4 258.976 99C257.92 100.6 256.176 101.816 253.744 102.648L259.312 117H248.608L244.384 103.704H243.856L241.024 117H230.656L237.136 86.52H249.76C251.232 86.52 252.624 86.616 253.936 86.808C255.248 86.968 256.384 87.32 257.344 87.864C258.336 88.376 259.12 89.112 259.696 90.072C260.272 91 260.56 92.232 260.56 93.768ZM246.736 100.632C247.568 100.632 248.272 100.36 248.848 99.816C249.456 99.24 249.936 98.552 250.288 97.752C250.672 96.952 250.944 96.104 251.104 95.208C251.264 94.28 251.344 93.48 251.344 92.808C251.344 91.976 251.2 91.272 250.912 90.696C250.624 90.088 250 89.784 249.04 89.784H246.88L244.48 100.632H246.736ZM296.263 117H285.607L290.023 96.264L278.647 117H272.119L269.959 95.544L265.351 117H261.031L267.511 86.52H279.751L281.239 103.704L290.455 86.52H302.791L296.263 117Z" fill="white"/>
</svg>
