<svg width="348" height="361" viewBox="0 0 348 361" fill="none" xmlns="http://www.w3.org/2000/svg">
<path d="M338.593 224.245C369.314 123.671 307.642 17.7587 219.885 4.12155C132.128 -9.5156 71.3011 32.5647 36.1895 70.4348C1.07796 108.305 -10.8512 207.474 16.2683 257.407C43.3878 307.34 98.9753 357.475 177.114 358.742C255.252 360.008 307.871 324.818 338.593 224.245Z" fill="#0E75B8" fill-opacity="0.8"/>
<path d="M63.2344 139.469L63.7969 138.906C63.6094 138.719 63.5156 138.438 63.5156 138.062C63.5156 136.375 64.0781 134.594 65.2031 132.719C66.3281 130.75 68.1562 129.156 70.6875 127.938L71.5312 126.812C73.2188 125.125 74.5781 123.859 75.6094 123.016L77.5781 120.766C78.1406 120.203 78.7969 119.922 79.5469 119.922H81.9375C82.9688 117.766 83.7188 116.594 84.1875 116.406L87.1406 114.438C87.3281 114.438 87.6562 114.625 88.125 115C88.5938 115.375 88.9219 115.562 89.1094 115.562C89.5781 115.562 89.8125 115.375 89.8125 115L88.8281 112.469C88.8281 111.625 89.4844 110.594 90.7969 109.375C92.1094 108.156 93.1406 107.031 93.8906 106C94.7344 104.875 96.1875 103.75 98.25 102.625L101.203 99.1094C102.141 98.3594 103.219 97.6563 104.438 97C105.75 96.3437 107.438 94.7031 109.5 92.0781C111.656 89.4531 113.344 87.9531 114.562 87.5781C115.781 87.2031 117.75 86.0781 120.469 84.2031L120.75 83.3594V77.875C120.75 77.5 121.031 77.3125 121.594 77.3125C121.781 77.5 123.141 77.9688 125.672 78.7188C125.859 78.1562 126.141 77.875 126.516 77.875C127.828 77.875 128.484 79.1875 128.484 81.8125C128.484 83.9687 127.688 85.2813 126.094 85.75C124.5 86.2187 123 89.3594 121.594 95.1719L120.75 97.1406C117.562 99.0156 115.078 102.203 113.297 106.703C113.297 107.828 112.828 108.672 111.891 109.234L109.5 108.953C108.562 110.266 107.953 111.953 107.672 114.016C107.391 115.984 106.875 116.969 106.125 116.969L104.297 116.688C102.984 116.688 102.141 117.625 101.766 119.5C101.391 121.281 101.109 122.266 100.922 122.453C99.0469 122.266 97.5938 123.906 96.5625 127.375C95.8125 128.5 94.6875 129.766 93.1875 131.172L91.0781 133.422L88.8281 135.109C86.8594 136.328 84.8438 138.531 82.7812 141.719C80.8125 144.812 79.1719 147.203 77.8594 148.891C76.5469 150.484 75.8906 151.656 75.8906 152.406C75.8906 154.188 78.2812 155.078 83.0625 155.078C83.8125 155.078 84.7031 155.312 85.7344 155.781C86.8594 156.25 88.0781 156.625 89.3906 156.906C90.7031 157.188 92.0156 157.656 93.3281 158.312C94.6406 158.969 96.8438 159.625 99.9375 160.281L103.734 161.125L107.531 160.844H108.375L113.016 161.125C114.891 161.125 116.344 160.047 117.375 157.891C118.5 155.641 119.812 153.391 121.312 151.141C122.906 148.891 123.984 147.203 124.547 146.078L125.672 144.672C126.422 144.109 126.984 142.844 127.359 140.875C127.734 138.812 129 137.594 131.156 137.219C132.844 135.438 133.688 134.172 133.688 133.422L133.406 131.453C133.406 131.078 134.016 130.281 135.234 129.062L137.766 124.281C138.141 122.875 138.75 121.516 139.594 120.203C140.438 118.891 140.953 117.438 141.141 115.844C141.422 114.156 141.656 113.312 141.844 113.312C142.031 113.312 142.734 112.469 143.953 110.781C145.172 109 146.062 108.016 146.625 107.828L147.891 106.984C148.453 106.422 149.297 105.813 150.422 105.156C151.078 100.656 151.734 98.3594 152.391 98.2656L153.094 96.0156C153.656 95.8281 154.359 95.1719 155.203 94.0469C156.047 92.8281 156.375 92.125 156.188 91.9375L157.594 91.6562C158.156 90.7187 158.953 89.875 159.984 89.125L159.141 85.6094V85.0469C159.141 84.1094 159.891 81.3906 161.391 76.8906C162.984 72.3906 164.438 70.1406 165.75 70.1406C168.375 70.1406 170.672 71.6406 172.641 74.6406C174.703 77.6406 175.734 82.2812 175.734 88.5625C175.734 90.0625 174.984 91.6562 173.484 93.3438C171.984 95.0312 170.531 97.8438 169.125 101.781C167.812 105.625 166.547 107.922 165.328 108.672C164.203 109.328 163.312 110.969 162.656 113.594C162 116.125 161.25 118.375 160.406 120.344C159.562 122.312 158.625 123.766 157.594 124.703C156.562 125.641 155.625 127.891 154.781 131.453C154.406 132.578 153.422 133.188 151.828 133.281C150.328 133.375 149.578 133.703 149.578 134.266C149.578 139.703 147.656 143.547 143.812 145.797C142.875 146.359 142.266 147.719 141.984 149.875C141.703 151.938 141.234 153.625 140.578 154.938C140.016 156.156 139.734 157.047 139.734 157.609C139.734 158.547 140.109 159.016 140.859 159.016C143.953 159.016 146.484 158.453 148.453 157.328C150.516 156.203 152.672 155.359 154.922 154.797C157.266 154.141 159.609 153.25 161.953 152.125C163.734 153.719 165.281 154.562 166.594 154.656C167.906 154.656 169.312 155.453 170.812 157.047L176.016 159.859C177.609 160.703 178.406 161.781 178.406 163.094C178.406 165.625 177.234 167.312 174.891 168.156C172.641 169 170.953 169.75 169.828 170.406C168.797 171.062 167.672 171.531 166.453 171.812C165.234 172 163.172 172.609 160.266 173.641C157.359 174.578 154.266 176.078 150.984 178.141H150.422C150.047 178.141 149.203 177.625 147.891 176.594C147.891 176.406 147.797 176.312 147.609 176.312L141.562 178.422C141.375 178.422 140.859 178.328 140.016 178.141H139.453C139.078 178.141 137.438 178.516 134.531 179.266C133.406 178.703 132.75 178.422 132.562 178.422C131.812 178.422 129.844 181.469 126.656 187.562C123.469 193.656 121.875 196.938 121.875 197.406V200.219C121.875 200.781 121.547 201.625 120.891 202.75C120.234 203.781 119.812 204.859 119.625 205.984C119.438 207.109 118.969 208.75 118.219 210.906L115.547 210.062C115.359 210.438 115.266 211 115.266 211.75C115.266 212.5 115.359 213.156 115.547 213.719V214.984C115.547 215.734 115.078 216.391 114.141 216.953V219.203C114.141 220.797 113.719 222.391 112.875 223.984C112.031 225.484 111.609 227.453 111.609 229.891C111.609 230.828 111.094 232.562 110.062 235.094L110.906 244.656L109.5 251.547L107.812 252.672C107.25 252.672 106.969 253.094 106.969 253.938C106.969 254.781 106.5 255.203 105.562 255.203C104.719 255.203 103.969 254.922 103.312 254.359C102.656 253.797 101.344 253.141 99.375 252.391C97.5 251.641 95.625 249.625 93.75 246.344L89.6719 242.547C88.7344 241.797 88.0781 241.094 87.7031 240.438C87.3281 239.781 86.5312 238.891 85.3125 237.766C84.1875 236.547 83.625 234.906 83.625 232.844C83.625 230.5 84.6562 228.062 86.7188 225.531V224.406C86.7188 224.219 86.8594 223.891 87.1406 223.422C87.5156 222.953 88.0781 221.875 88.8281 220.188L90.7969 216.391C91.7344 213.859 92.7656 212.359 93.8906 211.891C95.1094 211.422 95.7188 211.094 95.7188 210.906L95.1562 209.781C94.7812 209.594 94.5938 209.312 94.5938 208.938C94.5938 204.062 96.1406 200.125 99.2344 197.125L101.203 194.453C102.141 192.578 102.984 191.172 103.734 190.234C104.484 189.203 105.188 187.469 105.844 185.031C106.594 182.5 107.719 179.688 109.219 176.594V176.031C109.219 173.969 108.469 172.938 106.969 172.938L104.016 173.5H101.484C97.0781 173.5 94.3125 172.844 93.1875 171.531C92.1562 170.125 91.3594 169.422 90.7969 169.422H87.7031C84.9844 169.422 83.1094 168.906 82.0781 167.875C81.1406 166.844 80.5781 166.328 80.3906 166.328L70.6875 168.578C70.3125 168.578 69.8438 168.203 69.2812 167.453C68.8125 166.703 68.4844 166.328 68.2969 166.328C67.7344 166.328 67.125 166.516 66.4688 166.891C65.8125 167.266 65.3906 167.453 65.2031 167.453L61.6875 167.172L60 167.734C58.4062 167.734 55.6406 166.375 51.7031 163.656C47.8594 160.844 45.9375 157.562 45.9375 153.812C45.9375 151.75 46.7344 150.391 48.3281 149.734C49.9219 149.078 50.9531 148.562 51.4219 148.188L60.8438 139.188L63.2344 139.469Z" fill="white"/>
<path d="M225.392 77.04C227.888 77.04 229.936 77.392 231.536 78.096C233.136 78.8 234.4 79.888 235.328 81.36C235.968 82.352 236.464 83.488 236.816 84.768C237.168 86.016 237.344 87.44 237.344 89.04C237.344 90.384 237.216 91.76 236.96 93.168C236.704 94.576 236.336 95.936 235.856 97.248C235.376 98.56 234.8 99.808 234.128 100.992C233.488 102.144 232.768 103.152 231.968 104.016C230.528 105.616 228.88 106.752 227.024 107.424C225.168 108.064 222.912 108.384 220.256 108.384C217.696 108.384 215.616 108.096 214.016 107.52C212.448 106.944 211.2 106.016 210.272 104.736C209.504 103.808 208.928 102.64 208.544 101.232C208.192 99.792 208.016 98.128 208.016 96.24C208.016 94.544 208.176 92.896 208.496 91.296C208.816 89.664 209.28 88.144 209.888 86.736C210.528 85.328 211.296 84.048 212.192 82.896C213.088 81.744 214.112 80.768 215.264 79.968C216.608 79.008 218.096 78.288 219.728 77.808C221.392 77.296 223.28 77.04 225.392 77.04ZM220.16 105.024C220.8 105.024 221.408 104.688 221.984 104.016C222.592 103.344 223.152 102.464 223.664 101.376C224.176 100.256 224.624 98.992 225.008 97.584C225.424 96.144 225.776 94.672 226.064 93.168C226.352 91.632 226.576 90.144 226.736 88.704C226.896 87.232 226.976 85.888 226.976 84.672C226.976 83.04 226.832 81.92 226.544 81.312C226.256 80.672 225.84 80.352 225.296 80.352C224.624 80.352 223.984 80.688 223.376 81.36C222.768 82 222.208 82.864 221.696 83.952C221.184 85.008 220.704 86.24 220.256 87.648C219.84 89.056 219.472 90.496 219.152 91.968C218.864 93.44 218.64 94.896 218.48 96.336C218.32 97.776 218.24 99.088 218.24 100.272C218.24 102.064 218.416 103.312 218.768 104.016C219.12 104.688 219.584 105.024 220.16 105.024ZM238.975 103.296C241.183 102.592 243.327 101.712 245.407 100.656C247.487 99.568 249.343 98.272 250.975 96.768C252.607 95.232 253.903 93.456 254.863 91.44C255.855 89.424 256.351 87.104 256.351 84.48C256.351 83.2 256.223 82.208 255.967 81.504C255.711 80.8 255.263 80.448 254.623 80.448C254.047 80.448 253.503 80.72 252.991 81.264C252.511 81.808 252.063 82.496 251.647 83.328C251.263 84.16 250.895 85.088 250.543 86.112C250.223 87.136 249.951 88.128 249.727 89.088H241.039L242.623 81.888C244.415 80.352 246.303 79.168 248.287 78.336C250.271 77.472 252.511 77.04 255.007 77.04C256.543 77.04 257.983 77.216 259.327 77.568C260.703 77.92 261.887 78.48 262.879 79.248C263.903 79.984 264.703 80.928 265.279 82.08C265.887 83.2 266.191 84.544 266.191 86.112C266.191 87.296 265.983 88.464 265.567 89.616C265.183 90.768 264.479 91.968 263.455 93.216C262.463 94.432 261.103 95.712 259.375 97.056C257.679 98.368 255.519 99.792 252.895 101.328H263.599L262.639 108H237.918L238.975 103.296ZM285.908 77.04C288.404 77.04 290.452 77.392 292.052 78.096C293.652 78.8 294.916 79.888 295.844 81.36C296.484 82.352 296.98 83.488 297.332 84.768C297.684 86.016 297.86 87.44 297.86 89.04C297.86 90.384 297.732 91.76 297.476 93.168C297.22 94.576 296.852 95.936 296.372 97.248C295.892 98.56 295.316 99.808 294.644 100.992C294.004 102.144 293.284 103.152 292.484 104.016C291.044 105.616 289.396 106.752 287.54 107.424C285.684 108.064 283.428 108.384 280.772 108.384C278.212 108.384 276.132 108.096 274.532 107.52C272.964 106.944 271.716 106.016 270.788 104.736C270.02 103.808 269.444 102.64 269.06 101.232C268.708 99.792 268.532 98.128 268.532 96.24C268.532 94.544 268.692 92.896 269.012 91.296C269.332 89.664 269.796 88.144 270.404 86.736C271.044 85.328 271.812 84.048 272.708 82.896C273.604 81.744 274.628 80.768 275.78 79.968C277.124 79.008 278.612 78.288 280.244 77.808C281.908 77.296 283.796 77.04 285.908 77.04ZM280.676 105.024C281.316 105.024 281.924 104.688 282.5 104.016C283.108 103.344 283.668 102.464 284.18 101.376C284.692 100.256 285.14 98.992 285.524 97.584C285.94 96.144 286.292 94.672 286.58 93.168C286.868 91.632 287.092 90.144 287.252 88.704C287.412 87.232 287.492 85.888 287.492 84.672C287.492 83.04 287.348 81.92 287.06 81.312C286.772 80.672 286.356 80.352 285.812 80.352C285.14 80.352 284.5 80.688 283.892 81.36C283.284 82 282.724 82.864 282.212 83.952C281.7 85.008 281.22 86.24 280.772 87.648C280.356 89.056 279.988 90.496 279.668 91.968C279.38 93.44 279.156 94.896 278.996 96.336C278.836 97.776 278.756 99.088 278.756 100.272C278.756 102.064 278.932 103.312 279.284 104.016C279.636 104.688 280.1 105.024 280.676 105.024Z" fill="white"/>
</svg>
