<svg width="338" height="324" viewBox="0 0 338 324" fill="none" xmlns="http://www.w3.org/2000/svg">
<path d="M2.90187 176.748C-11.5981 81.7478 77.3766 15.6542 149.362 5.66011C221.347 -4.334 252.929 2.53272 289.985 43.8219C327.04 85.1111 358.094 156.762 317.243 229.153C276.393 301.544 197.034 333.956 146.833 317.682C96.6321 301.409 17.4019 271.748 2.90187 176.748Z" fill="#87E3E1" fill-opacity="0.8"/>
<path d="M191.48 85.52H201.896L196.232 111.968H205.976L205.16 116H185L191.48 85.52ZM243.388 116H232.732L237.148 95.264L225.772 116H219.244L217.084 94.544L212.476 116H208.156L214.636 85.52H226.876L228.364 102.704L237.58 85.52H249.916L243.388 116ZM267.568 94.352C267.664 93.872 267.712 93.216 267.712 92.384C267.712 91.904 267.68 91.44 267.616 90.992C267.552 90.512 267.44 90.096 267.28 89.744C267.12 89.36 266.88 89.072 266.56 88.88C266.24 88.656 265.824 88.544 265.312 88.544C264.736 88.544 264.208 88.672 263.728 88.928C263.248 89.184 262.816 89.52 262.432 89.936C262.08 90.32 261.792 90.784 261.568 91.328C261.376 91.84 261.28 92.384 261.28 92.96C261.28 93.792 261.488 94.432 261.904 94.88C262.352 95.328 262.928 95.696 263.632 95.984C264.336 96.272 265.136 96.512 266.032 96.704C266.928 96.896 267.856 97.12 268.816 97.376C269.616 97.6 270.416 97.888 271.216 98.24C272.016 98.592 272.72 99.072 273.328 99.68C273.968 100.256 274.48 101.024 274.864 101.984C275.248 102.912 275.44 104.08 275.44 105.488C275.44 107.504 275.04 109.2 274.24 110.576C273.44 111.952 272.336 113.072 270.928 113.936C269.52 114.8 267.84 115.424 265.888 115.808C263.968 116.192 261.872 116.384 259.6 116.384C257.296 116.384 255.408 116.24 253.936 115.952C252.496 115.632 251.36 115.296 250.528 114.944C249.536 114.528 248.8 114.048 248.32 113.504L249.952 106.928H258.4C258.368 107.216 258.336 107.616 258.304 108.128C258.272 108.608 258.256 108.992 258.256 109.28C258.256 109.664 258.304 110.064 258.4 110.48C258.496 110.896 258.64 111.28 258.832 111.632C259.056 111.984 259.36 112.272 259.744 112.496C260.128 112.72 260.608 112.832 261.184 112.832C261.824 112.832 262.384 112.688 262.864 112.4C263.376 112.112 263.792 111.76 264.112 111.344C264.464 110.896 264.72 110.416 264.88 109.904C265.072 109.36 265.168 108.832 265.168 108.32C265.168 107.616 264.992 107.024 264.64 106.544C264.32 106.064 263.872 105.664 263.296 105.344C262.72 104.992 262.048 104.704 261.28 104.48C260.544 104.224 259.776 103.968 258.976 103.712C258.208 103.488 257.392 103.216 256.528 102.896C255.696 102.576 254.928 102.128 254.224 101.552C253.52 100.976 252.928 100.256 252.448 99.392C252 98.496 251.776 97.36 251.776 95.984C251.776 93.936 252.288 92.224 253.312 90.848C254.368 89.44 255.68 88.304 257.248 87.44C258.848 86.576 260.592 85.968 262.48 85.616C264.368 85.232 266.16 85.04 267.856 85.04C270.096 85.04 272.016 85.312 273.616 85.856C275.248 86.368 276.48 86.976 277.312 87.68L275.536 94.352H267.568Z" fill="white"/>
<path d="M119.921 110.406L132.578 91.4219C132.578 91.2344 132.39 90.9062 132.015 90.4375C126.296 90.4375 123.437 88.1406 123.437 83.5469C123.437 81.2969 124.937 79.375 127.937 77.7812C131.031 76.1875 133.234 74.7344 134.546 73.4219C135.953 72.1094 137.64 70.9375 139.609 69.9062C141.578 68.875 143.406 67.2812 145.093 65.125C145.093 64.9375 145.843 64.6563 147.343 64.2812C148.843 63.9062 150.437 63.2969 152.125 62.4531C153.906 61.6094 155.359 61.1875 156.484 61.1875C163.984 67.0938 167.734 70.8906 167.734 72.5781C167.734 74.1719 166.89 75.8125 165.203 77.5C163.609 79.0937 162.578 80.2656 162.109 81.0156C161.64 81.7656 160.375 82.9844 158.312 84.6719C158.312 84.9531 157.703 85.9375 156.484 87.625L154.234 92.2656C153.109 94.5156 152.359 95.9219 151.984 96.4844L150.718 98.875C149.593 101.125 147.906 103.516 145.656 106.047C145.468 106.047 144.718 107.453 143.406 110.266L138.906 119.266C138.156 120.016 136.984 121.047 135.39 122.359C133.89 123.672 132.203 127.281 130.328 133.188L125.968 144.016C125.031 146.547 123.765 148.938 122.171 151.188C120.578 153.344 119.359 156.531 118.515 160.75L116.546 163.141C115.89 165.297 115.187 168.812 114.437 173.688C113.781 175 113.406 176.078 113.312 176.922C113.218 177.672 112.75 178.281 111.906 178.75C111.156 179.219 110.781 180.531 110.781 182.688C110.781 184.188 110.406 185.734 109.656 187.328L107.265 193.094C105.953 193.75 105.296 194.406 105.296 195.062C105.296 195.438 105.39 196.188 105.578 197.312V197.875C105.578 198.906 105.437 199.797 105.156 200.547C104.875 201.297 104.593 202.516 104.312 204.203C104.031 205.797 103.515 208.234 102.765 211.516C102.109 214.703 101.781 217.188 101.781 218.969L102.343 221.781C102.343 222.156 101.968 223.047 101.218 224.453L101.781 226.703C101.781 228.297 100.75 229.094 98.687 229.094C93.9995 229.094 90.1558 225.859 87.1558 219.391C84.2495 212.828 82.7964 206.453 82.7964 200.266L84.4839 192.672V188.453C84.4839 188.359 84.9995 187.562 86.0308 186.062L93.2026 167.359L97.8433 156.672C101.875 147.391 104.968 140.547 107.125 136.141C109.375 131.641 110.968 128.219 111.906 125.875L113.593 124.188C114.906 122.875 117.015 118.281 119.921 110.406Z" fill="white"/>
</svg>
