<svg width="376" height="342" viewBox="0 0 376 342" fill="none" xmlns="http://www.w3.org/2000/svg">
<path d="M370.048 195.156C394.864 113.918 291.241 3.50149 221.481 2.3704C151.72 1.2393 109.763 1.97301 60.7408 27.4519C11.7188 52.9308 -22.2029 145.887 22.2245 227.686C66.652 309.486 159.554 354.01 216.06 336.7C272.567 319.389 345.233 276.395 370.048 195.156Z" fill="#6ED2E7" fill-opacity="0.8"/>
<path d="M117.515 159.891L116.25 162C116.156 162.188 115.078 162.75 113.015 163.688C110.953 164.625 108.281 166.875 105 170.438C101.812 174 99.3276 175.969 97.5464 176.344C97.3589 176.344 96.8901 176.766 96.1401 177.609C95.3901 178.359 94.4995 178.969 93.4683 179.438C92.5308 179.906 91.312 181.031 89.812 182.812C88.312 184.5 87.1401 185.578 86.2964 186.047C85.5464 186.516 84.7026 187.969 83.7651 190.406C81.6089 193.312 79.5933 194.953 77.7183 195.328C77.3433 195.703 77.1558 196.312 77.1558 197.156C77.1558 201.188 78.7964 203.203 82.0776 203.203C82.4526 203.203 82.9214 203.109 83.4839 202.922C84.0464 202.734 85.312 202.547 87.2808 202.359C89.3433 202.078 90.7495 201.656 91.4995 201.094C92.2495 200.531 93.6089 200.25 95.5776 200.25H96.1401L99.0933 200.531L108.796 198.562L110.765 197.719L115.406 198C116.343 198 117.468 197.625 118.781 196.875C120.187 196.031 121.265 195.516 122.015 195.328C122.203 195.141 122.39 195.047 122.578 195.047L126.375 195.328L131.296 193.641L137.906 192.797C138.843 192.609 141.937 192.516 147.187 192.516C148.125 192.516 149.812 192.703 152.25 193.078C152.437 193.266 152.859 193.359 153.515 193.359C153.89 193.359 154.968 193.219 156.75 192.938C158.625 192.656 160.312 192.516 161.812 192.516C168.187 192.516 171.656 193.969 172.218 196.875L175.312 203.203C176.531 205.453 177.14 206.953 177.14 207.703V208.969L176.437 210.938L176.718 212.906C176.718 215.812 176.062 217.5 174.75 217.969C173.437 218.438 172.5 218.953 171.937 219.516H171.656C168.937 219.516 166.593 217.781 164.625 214.312L162.937 215.016L160.406 214.031C159.656 214.5 158.484 214.734 156.89 214.734C156.328 214.734 154.968 213.938 152.812 212.344H152.25C151.687 212.344 150.89 212.531 149.859 212.906C148.828 213.281 148.125 213.469 147.75 213.469C147.562 213.469 147.14 213.328 146.484 213.047C145.921 212.766 145.453 212.625 145.078 212.625C144.328 212.625 142.312 213.188 139.031 214.312L119.484 217.547L115.968 216.984C113.437 216.984 111.14 217.688 109.078 219.094C108.14 219.75 107.484 220.078 107.109 220.078L102.468 218.953L81.7964 222.469C81.2339 222.562 80.4839 222.141 79.5464 221.203C78.7026 220.266 78.0933 219.797 77.7183 219.797C77.5308 219.984 77.2026 220.781 76.7339 222.188C76.2651 223.5 75.1401 224.156 73.3589 224.156C69.1401 224.156 65.9058 223.125 63.6558 221.062C63.4683 220.875 63.0464 220.781 62.3901 220.781L59.5776 220.078C59.5776 219.703 59.1089 218.766 58.1714 217.266L56.9058 213.469L55.2183 210.656C54.2808 209.062 53.812 206.953 53.812 204.328C53.812 196.453 55.1245 191.297 57.7495 188.859C60.4683 186.328 61.9214 184.641 62.1089 183.797C64.4526 179.578 68.9995 174.609 75.7495 168.891L81.7964 162.844C81.9839 162.656 82.2651 162.469 82.6401 162.281C83.0151 162 84.6558 160.641 87.562 158.203C90.562 155.766 92.7651 154.078 94.1714 153.141C95.5776 152.203 97.5933 150.703 100.218 148.641L106.968 143.578C109.968 140.766 114.703 137.484 121.171 133.734L122.015 132.891L124.968 132.047L126.656 130.219C128.156 129.094 129.984 128.531 132.14 128.531L143.39 121.641L148.734 119.531C150.609 118.594 152.671 117.516 154.921 116.297C157.265 114.984 159.75 114 162.375 113.344L166.171 111.797L168.984 109.266C169.734 108.703 171.187 108 173.343 107.156C175.593 106.219 177.281 105.281 178.406 104.344C179.625 103.406 181.781 102.281 184.875 100.969C187.968 99.5625 189.515 97.5469 189.515 94.9219C189.515 93.1406 188.484 92.1094 186.421 91.8281C184.453 91.5469 182.906 91.0312 181.781 90.2812C180.75 89.5313 180.14 89.1562 179.953 89.1562L172.218 89.4375L170.39 88.875C168.515 88.4063 167.296 88.1719 166.734 88.1719C165.515 88.1719 164.25 88.4063 162.937 88.875C161.625 89.25 160.593 89.4375 159.843 89.4375L155.484 88.1719C154.546 88.4531 152.062 89.4375 148.031 91.125L146.765 91.4062C146.015 92.1562 145.359 92.5312 144.796 92.5312L141.14 92.25L134.671 95.2031C133.171 96.3281 131.812 97.0781 130.593 97.4531C129.468 97.8281 128.484 98.3437 127.64 99C126.796 99.6563 126 99.9844 125.25 99.9844L121.453 98.8594C120.89 98.8594 120.234 99.375 119.484 100.406C118.734 101.344 118.078 101.812 117.515 101.812C113.484 101.812 111.468 97.875 111.468 90C111.468 87.2813 112.734 84.4688 115.265 81.5625C117.89 78.5625 120.328 77.0625 122.578 77.0625L133.546 75.5156C133.921 75.5156 135.187 75.7031 137.343 76.0781H137.906L141.703 74.1094C142.828 73.7344 143.578 73.5469 143.953 73.5469L148.312 73.8281L158.578 72.4219L170.812 73.6875C174.562 74.1562 176.953 74.4844 177.984 74.6719L180.796 74.9531C184.64 74.9531 189.046 78.7031 194.015 86.2031C194.39 86.9531 195.609 88.5938 197.671 91.125C199.828 93.6562 200.906 97.0312 200.906 101.25C200.906 103.313 199.875 105.609 197.812 108.141L197.25 109.828C197.062 110.391 195.515 112.547 192.609 116.297C189.796 120.047 186.843 121.922 183.75 121.922L180.796 121.641C179.859 121.641 179.203 121.922 178.828 122.484L168.421 129.375C166.546 130.969 164.156 132.422 161.25 133.734L159.281 135.141L156.609 135.703C156.234 135.891 155.296 136.875 153.796 138.656C152.296 140.344 151.125 141.188 150.281 141.188L146.484 140.906C145.359 140.906 143.625 142.031 141.281 144.281C139.031 146.438 136.734 148.312 134.39 149.906L132.14 152.438C131.578 152.625 130.218 153.094 128.062 153.844C126 154.5 124.5 155.344 123.562 156.375C122.718 157.406 121.546 158.156 120.046 158.625C118.546 159.094 117.703 159.516 117.515 159.891Z" fill="white"/>
<path d="M243.912 83.352C244.008 82.872 244.056 82.216 244.056 81.384C244.056 80.904 244.024 80.44 243.96 79.992C243.896 79.512 243.784 79.096 243.624 78.744C243.464 78.36 243.224 78.072 242.904 77.88C242.584 77.656 242.168 77.544 241.656 77.544C241.08 77.544 240.552 77.672 240.072 77.928C239.592 78.184 239.16 78.52 238.776 78.936C238.424 79.32 238.136 79.784 237.912 80.328C237.72 80.84 237.624 81.384 237.624 81.96C237.624 82.792 237.832 83.432 238.248 83.88C238.696 84.328 239.272 84.696 239.976 84.984C240.68 85.272 241.48 85.512 242.376 85.704C243.272 85.896 244.2 86.12 245.16 86.376C245.96 86.6 246.76 86.888 247.56 87.24C248.36 87.592 249.064 88.072 249.672 88.68C250.312 89.256 250.824 90.024 251.208 90.984C251.592 91.912 251.784 93.08 251.784 94.488C251.784 96.504 251.384 98.2 250.584 99.576C249.784 100.952 248.68 102.072 247.272 102.936C245.864 103.8 244.184 104.424 242.232 104.808C240.312 105.192 238.216 105.384 235.944 105.384C233.64 105.384 231.752 105.24 230.28 104.952C228.84 104.632 227.704 104.296 226.872 103.944C225.88 103.528 225.144 103.048 224.664 102.504L226.296 95.928H234.744C234.712 96.216 234.68 96.616 234.648 97.128C234.616 97.608 234.6 97.992 234.6 98.28C234.6 98.664 234.648 99.064 234.744 99.48C234.84 99.896 234.984 100.28 235.176 100.632C235.4 100.984 235.704 101.272 236.088 101.496C236.472 101.72 236.952 101.832 237.528 101.832C238.168 101.832 238.728 101.688 239.208 101.4C239.72 101.112 240.136 100.76 240.456 100.344C240.808 99.896 241.064 99.416 241.224 98.904C241.416 98.36 241.512 97.832 241.512 97.32C241.512 96.616 241.336 96.024 240.984 95.544C240.664 95.064 240.216 94.664 239.64 94.344C239.064 93.992 238.392 93.704 237.624 93.48C236.888 93.224 236.12 92.968 235.32 92.712C234.552 92.488 233.736 92.216 232.872 91.896C232.04 91.576 231.272 91.128 230.568 90.552C229.864 89.976 229.272 89.256 228.792 88.392C228.344 87.496 228.12 86.36 228.12 84.984C228.12 82.936 228.632 81.224 229.656 79.848C230.712 78.44 232.024 77.304 233.592 76.44C235.192 75.576 236.936 74.968 238.824 74.616C240.712 74.232 242.504 74.04 244.2 74.04C246.44 74.04 248.36 74.312 249.96 74.856C251.592 75.368 252.824 75.976 253.656 76.68L251.88 83.352H243.912ZM256.545 74.52H267.489L269.121 95.16L279.105 74.52H283.857L269.649 105H258.321L256.545 74.52ZM306.963 102.408C306.163 102.792 305.331 103.176 304.467 103.56C303.635 103.912 302.739 104.232 301.779 104.52C300.819 104.776 299.763 104.984 298.611 105.144C297.491 105.304 296.259 105.384 294.915 105.384C290.627 105.384 287.315 104.424 284.979 102.504C282.675 100.584 281.523 97.384 281.523 92.904C281.523 90.312 281.923 87.88 282.723 85.608C283.523 83.304 284.707 81.304 286.275 79.608C287.843 77.88 289.779 76.52 292.083 75.528C294.387 74.536 297.027 74.04 300.003 74.04C301.411 74.04 302.691 74.136 303.843 74.328C305.027 74.52 306.083 74.776 307.011 75.096C307.971 75.384 308.819 75.704 309.555 76.056C310.323 76.408 311.011 76.744 311.619 77.064L309.891 85.992H301.251C301.283 85.672 301.315 85.256 301.347 84.744C301.411 84.232 301.459 83.72 301.491 83.208C301.523 82.664 301.555 82.136 301.587 81.624C301.619 81.112 301.635 80.68 301.635 80.328C301.635 80.072 301.619 79.784 301.587 79.464C301.555 79.112 301.475 78.776 301.347 78.456C301.219 78.136 301.011 77.88 300.723 77.688C300.467 77.464 300.115 77.352 299.667 77.352C298.835 77.352 298.067 77.704 297.363 78.408C296.691 79.08 296.083 79.992 295.539 81.144C294.995 82.264 294.515 83.544 294.099 84.984C293.683 86.424 293.331 87.896 293.043 89.4C292.787 90.872 292.579 92.328 292.419 93.768C292.291 95.208 292.227 96.472 292.227 97.56C292.227 97.88 292.243 98.28 292.275 98.76C292.307 99.24 292.403 99.704 292.563 100.152C292.723 100.6 292.963 100.984 293.283 101.304C293.635 101.624 294.099 101.784 294.675 101.784C295.667 101.784 296.627 101.176 297.555 99.96C298.483 98.712 299.299 96.504 300.003 93.336H308.883L306.963 102.408Z" fill="white"/>
</svg>
