<svg width="159" height="140" viewBox="0 0 159 140" fill="none" xmlns="http://www.w3.org/2000/svg">
<path d="M156.231 97.9848C163.818 71.1663 143.194 13.9189 113.395 4.49224C83.5966 -4.93444 41.8784 6.72705 24.7448 20.1363C7.6111 33.5456 -4.68131 63.3444 3.88599 90.1628C12.4533 116.981 38.8989 130.391 63.8552 137.468C88.8114 144.545 148.643 124.803 156.231 97.9848Z" fill="#1262A9"/>
<path d="M52.262 72.392H53.558V72.968H52.262V72.392ZM51.128 73.868H54.782V71.474H51.128V73.868ZM50.39 70.952H55.466V74.39H50.39V70.952ZM48.752 75.578H57.194V69.782H48.752V75.578ZM51.074 65.768H54.764V66.488H51.074V65.768ZM53.828 68.09V67.55H56.564V64.688H49.382V67.55H52.028V68.09H47.924V69.26H58.112V68.09H53.828ZM47.312 76.172V64.112H58.652V76.172H47.312ZM45.332 62.348V78.548H47.312V77.918H58.652V78.548H60.74V62.348H45.332ZM74.942 74.138V74.786H67.238V74.138H74.942ZM67.238 76.73V76.028H74.942V76.73H67.238ZM65.168 78.62H67.238V78.08H74.942V78.602H77.102V72.77H65.168V78.62ZM71.99 66.218H74.888V66.902H71.99V66.218ZM71.99 64.076H74.888V64.742H71.99V64.076ZM77.012 68.144V66.218H79.064V64.742H77.012V62.834H71.99V61.7H69.848V62.834H64.772V64.076H69.848V64.742H62.936V66.218H69.848V66.902H64.574V68.144H69.848V68.774H64.178V70.07H69.848V70.718H62.918V72.212H79.064V70.718H71.99V70.07H77.75V68.774H71.99V68.144H77.012ZM94.13 67.01C93.932 68.576 93.626 69.98 93.176 71.204C92.69 69.908 92.33 68.504 92.078 67.01H94.13ZM87.254 69.134H86.21C86.48 68.846 86.732 68.54 86.984 68.234H89.126C88.856 68.72 88.568 69.152 88.262 69.53L87.632 69.026L87.254 69.134ZM85.31 65.192H86.714C86.462 65.606 86.192 66.002 85.904 66.398H85.31V65.192ZM97.406 67.01V65.03H92.618C92.87 64.076 93.068 63.086 93.248 62.078L91.088 61.754C90.764 63.878 90.224 65.948 89.432 67.622V66.398H88.298C89.018 65.264 89.648 64.058 90.17 62.744L88.19 62.186C87.866 63.032 87.488 63.86 87.056 64.616V63.392H85.31V61.754H83.312V63.392H81.278V65.192H83.312V66.398H80.684V68.234H84.302C83.978 68.54 83.654 68.846 83.312 69.134H82.16V69.998C81.566 70.394 80.936 70.772 80.27 71.096C80.702 71.492 81.422 72.32 81.71 72.734C82.7 72.176 83.618 71.528 84.5 70.79H85.778C85.472 71.114 85.148 71.42 84.842 71.69H84.14V73.094C82.79 73.202 81.548 73.292 80.54 73.364L80.756 75.272C81.746 75.182 82.898 75.074 84.14 74.966V76.496C84.14 76.694 84.068 76.748 83.834 76.766C83.618 76.766 82.826 76.766 82.142 76.748C82.394 77.252 82.664 78.008 82.754 78.566C83.87 78.566 84.698 78.548 85.346 78.26C85.994 77.954 86.156 77.468 86.156 76.55V74.786C87.236 74.696 88.334 74.606 89.414 74.498V72.662C88.334 72.752 87.236 72.86 86.156 72.932V72.572C87.038 71.87 87.956 70.952 88.676 70.106C89.126 70.466 89.63 70.934 89.864 71.204C90.152 70.826 90.422 70.412 90.692 69.962C91.016 71.294 91.412 72.518 91.916 73.616C90.98 74.93 89.738 75.938 88.046 76.694C88.442 77.144 89.072 78.134 89.27 78.638C90.836 77.846 92.078 76.874 93.068 75.686C93.878 76.874 94.868 77.846 96.11 78.584C96.434 77.99 97.1 77.144 97.586 76.712C96.254 76.028 95.21 74.984 94.4 73.706C95.354 71.87 95.966 69.674 96.344 67.01H97.406ZM103.598 74.246V73.382H110.42V74.246H103.598ZM110.42 71.06V71.924H103.598V71.06H110.42ZM112.598 69.332H101.456V78.566H103.598V75.722H110.42V76.55C110.42 76.802 110.33 76.892 110.006 76.892C109.736 76.91 108.584 76.91 107.72 76.856C107.954 77.342 108.242 78.044 108.35 78.566C109.808 78.566 110.87 78.548 111.608 78.296C112.346 78.026 112.598 77.576 112.598 76.568V69.332ZM109.754 65.156L108.89 65.678C109.268 65.948 109.664 66.254 110.06 66.578C108.17 66.614 106.298 66.632 104.552 66.668C104.966 66.182 105.398 65.66 105.794 65.156H109.754ZM114.956 65.156V63.284H108.08V61.754H105.884V63.284H99.008V65.156H103.094C102.806 65.66 102.482 66.2 102.14 66.686L99.638 66.722L99.692 68.648C102.842 68.576 107.54 68.45 112.022 68.288C112.454 68.702 112.832 69.098 113.102 69.44L114.992 68.234C114.2 67.316 112.706 66.11 111.392 65.156H114.956Z" fill="white"/>
</svg>
