<svg width="170" height="130" viewBox="0 0 170 130" fill="none" xmlns="http://www.w3.org/2000/svg">
<path d="M168.676 63.0792C168.676 21.5787 133.427 8.10883 100.161 2.53757C66.8956 -3.0337 24.2963 7.57921 12.9046 26.0792C1.51291 44.5792 -8.09564 76.0791 12.9047 101.079C33.9051 126.079 76.785 133.843 100.165 126.08C123.546 118.317 168.676 104.58 168.676 63.0792Z" fill="#68CEDA"/>
<path d="M43.006 60.074H47.902V63.818H49.99V60.074H54.94V62.306H56.92V58.652H49.99V57.968H55.606V56.384H42.34V57.968H47.902V58.652H41.116V62.306H43.006V60.074ZM50.674 63.638H54.598V62.468H50.674V63.638ZM50.674 60.686V61.838H54.184V60.686H50.674ZM47.254 60.686H43.708V61.838H47.254V60.686ZM43.366 63.638H47.254V62.468H43.366V63.638ZM44.806 68.606V67.832H47.794V68.606H44.806ZM47.794 65.744V66.536H44.806V65.744H47.794ZM53.104 66.536H49.846V65.744H53.104V66.536ZM49.846 68.606V67.832H53.104V68.606H49.846ZM51.142 70.874C50.044 70.874 49.846 70.766 49.846 70.1V70.046H55.228V64.304H42.772V70.838H44.806V70.046H47.794V70.1C47.794 71.99 48.478 72.512 50.944 72.512H54.724C56.686 72.512 57.262 71.918 57.514 69.758C56.974 69.65 56.164 69.38 55.732 69.074C55.606 70.604 55.444 70.874 54.544 70.874H51.142ZM75.262 63.602H68.134V62.45C70.168 61.28 72.364 59.552 73.894 57.968L72.256 56.744L71.77 56.852H60.628V58.958H69.538C68.764 59.588 67.846 60.236 66.964 60.758H65.902V63.602H58.756V65.744H65.902V70.028C65.902 70.352 65.776 70.442 65.398 70.442C64.984 70.442 63.598 70.442 62.356 70.388C62.698 70.982 63.112 71.972 63.256 72.602C64.894 72.62 66.154 72.566 67 72.224C67.864 71.882 68.134 71.306 68.134 70.064V65.744H75.262V63.602ZM81.13 55.988C80.05 58.706 78.16 61.352 76.216 62.99C76.612 63.53 77.224 64.718 77.458 65.258C78.052 64.7 78.664 64.052 79.24 63.35V72.53H81.382V60.326C82.102 59.138 82.732 57.914 83.254 56.69L81.13 55.988ZM87.754 70.352C86.89 70.352 86.764 70.172 86.764 69.11V64.574C88.87 63.566 91.102 62.36 92.884 61.1L91.3 59.228C90.112 60.254 88.456 61.406 86.764 62.378V56.222H84.604V69.092C84.604 71.63 85.252 72.35 87.52 72.35H90.598C92.722 72.35 93.28 71.216 93.532 68.12C92.956 67.994 92.056 67.58 91.552 67.202C91.408 69.74 91.264 70.352 90.4 70.352H87.754ZM105.628 61.01H108.112C107.878 62.846 107.5 64.412 106.906 65.78C106.312 64.412 105.844 62.882 105.538 61.244L105.628 61.01ZM111.388 61.01V59.03H106.258C106.528 58.076 106.762 57.086 106.924 56.078L104.8 55.754C104.404 58.292 103.684 60.722 102.568 62.468V62.018H100.516V58.868H103.072V56.816H94.828V58.868H98.428V68.138L97.276 68.354V61.028H95.35V68.696L94.414 68.858L94.792 71.036C97.096 70.514 100.282 69.83 103.234 69.146L103.054 67.184C102.208 67.364 101.362 67.544 100.516 67.724V64.034H102.568V63.872C102.964 64.214 103.342 64.592 103.558 64.844C103.774 64.574 103.99 64.268 104.188 63.962C104.584 65.42 105.052 66.734 105.664 67.922C104.764 69.092 103.558 70.028 101.992 70.712C102.388 71.162 103.018 72.116 103.198 72.602C104.71 71.864 105.898 70.928 106.87 69.812C107.734 70.928 108.778 71.864 110.092 72.548C110.398 71.972 111.064 71.144 111.55 70.712C110.182 70.082 109.066 69.128 108.184 67.94C109.21 66.068 109.858 63.782 110.272 61.01H111.388ZM118.966 59.642C118.426 61.208 117.31 63.062 115.978 64.358C115.996 63.692 116.014 63.062 116.014 62.504V59.57H129.208V57.59H122.674V55.772H120.442V57.59H113.926V62.486C113.926 65.114 113.8 68.858 112.396 71.45C112.9 71.666 113.836 72.26 114.232 72.638C115.276 70.73 115.726 68.084 115.906 65.672C116.176 65.996 116.428 66.32 116.608 66.554C117.004 66.23 117.382 65.888 117.742 65.492V72.53H119.758V62.81C120.262 61.964 120.712 61.082 121.072 60.218L118.966 59.642ZM120.856 65.6C121.558 66.662 122.278 68.12 122.566 69.056L124.366 68.246C124.042 67.31 123.322 65.942 122.566 64.898L120.856 65.6ZM129.298 62.144H127.48V59.912H125.41V62.144H120.766V64.124H125.41V70.226C125.41 70.496 125.302 70.586 125.014 70.586C124.69 70.586 123.682 70.586 122.728 70.55C123.016 71.144 123.304 72.026 123.376 72.602C124.834 72.62 125.86 72.566 126.562 72.242C127.264 71.9 127.48 71.36 127.48 70.244V64.124H129.298V62.144Z" fill="white"/>
</svg>
