<svg width="150" height="132" viewBox="0 0 150 132" fill="none" xmlns="http://www.w3.org/2000/svg">
<path d="M144.9 92.2584C157.578 65.8992 141.802 13.2301 110.632 6.81525C79.4621 0.400361 45.7051 -7.28102 21.9814 18.4201C-1.74228 44.1213 -2.95146 67.3757 7.08191 92.2584C17.1153 117.141 53.1077 130.537 83.8132 130.537C114.519 130.537 132.223 118.618 144.9 92.2584Z" fill="#68CEDA"/>
<path d="M42.006 62.074H46.902V65.818H48.99V62.074H53.94V64.306H55.92V60.652H48.99V59.968H54.606V58.384H41.34V59.968H46.902V60.652H40.116V64.306H42.006V62.074ZM49.674 65.638H53.598V64.468H49.674V65.638ZM49.674 62.686V63.838H53.184V62.686H49.674ZM46.254 62.686H42.708V63.838H46.254V62.686ZM42.366 65.638H46.254V64.468H42.366V65.638ZM43.806 70.606V69.832H46.794V70.606H43.806ZM46.794 67.744V68.536H43.806V67.744H46.794ZM52.104 68.536H48.846V67.744H52.104V68.536ZM48.846 70.606V69.832H52.104V70.606H48.846ZM50.142 72.874C49.044 72.874 48.846 72.766 48.846 72.1V72.046H54.228V66.304H41.772V72.838H43.806V72.046H46.794V72.1C46.794 73.99 47.478 74.512 49.944 74.512H53.724C55.686 74.512 56.262 73.918 56.514 71.758C55.974 71.65 55.164 71.38 54.732 71.074C54.606 72.604 54.444 72.874 53.544 72.874H50.142ZM74.262 65.602H67.134V64.45C69.168 63.28 71.364 61.552 72.894 59.968L71.256 58.744L70.77 58.852H59.628V60.958H68.538C67.764 61.588 66.846 62.236 65.964 62.758H64.902V65.602H57.756V67.744H64.902V72.028C64.902 72.352 64.776 72.442 64.398 72.442C63.984 72.442 62.598 72.442 61.356 72.388C61.698 72.982 62.112 73.972 62.256 74.602C63.894 74.62 65.154 74.566 66 74.224C66.864 73.882 67.134 73.306 67.134 72.064V67.744H74.262V65.602ZM87.204 66.43C86.43 67.798 85.35 68.878 84.036 69.742C82.74 68.842 81.732 67.744 81.012 66.43H87.204ZM88.788 64.252L88.41 64.324H85.044V62.236H91.632V60.112H85.044V57.772H82.83V60.112H76.278V62.236H82.83V64.324H77.178V66.43H80.508L78.924 66.97C79.752 68.5 80.742 69.796 81.948 70.858C80.094 71.668 77.916 72.19 75.558 72.496C75.972 72.982 76.53 73.99 76.728 74.566C79.356 74.116 81.804 73.396 83.91 72.28C85.836 73.432 88.212 74.188 91.074 74.602C91.38 73.972 91.992 73.018 92.442 72.514C89.958 72.244 87.834 71.704 86.052 70.894C87.906 69.454 89.382 67.564 90.282 65.098L88.788 64.252ZM97.806 57.844C96.852 60.49 95.214 63.082 93.504 64.72C93.882 65.242 94.53 66.43 94.764 66.952C95.178 66.52 95.61 66.034 96.024 65.512V74.53H98.22V62.164C98.886 60.958 99.444 59.734 99.93 58.528L97.806 57.844ZM110.388 61.624H108.408V57.952H106.176V61.624H99.318V63.784H106.176V71.956C106.176 72.352 106.014 72.496 105.564 72.496C105.15 72.514 103.566 72.514 102.18 72.46C102.504 73.018 102.882 73.972 103.008 74.584C104.988 74.602 106.338 74.566 107.22 74.224C108.084 73.9 108.408 73.342 108.408 71.956V63.784H110.388V61.624ZM104.502 69.238C103.962 68.158 102.846 66.394 102.036 65.08L100.128 65.962C100.938 67.33 102 69.184 102.468 70.282L104.502 69.238Z" fill="white"/>
</svg>
