<svg width="163" height="139" viewBox="0 0 163 139" fill="none" xmlns="http://www.w3.org/2000/svg">
<path d="M161.188 69.2097C171.201 13.4226 119.762 0.663383 83.2588 0.663372C46.7558 0.66336 16.7121 17.7139 6.7001 36.7863C-3.31192 55.8588 2.6127 85.8983 13.375 107.355C24.1372 128.811 76.2359 143.116 96.3405 136.44C116.445 129.765 151.175 124.997 161.188 69.2097Z" fill="#68CEDA"/>
<path d="M63.4468 63.5485C62.9248 62.7025 61.8088 61.5145 60.8548 60.6505L59.2528 61.6405C60.1888 62.5585 61.2688 63.8185 61.7188 64.6645L63.4468 63.5485ZM51.5128 60.6685C50.4328 63.3865 48.5428 66.0325 46.5988 67.6885C46.9768 68.2105 47.5888 69.3625 47.7868 69.8665C48.4348 69.2905 49.0468 68.6065 49.6588 67.8505V77.3005H51.8908V64.6465C52.5388 63.5485 53.0968 62.4325 53.5648 61.3345L51.5128 60.6685ZM63.7168 67.1305L63.4108 65.1145L58.2808 65.7805C58.1548 64.2505 58.0828 62.5585 58.0468 60.7945H55.8688C55.9228 62.6845 56.0308 64.4485 56.1568 66.0685L52.5208 66.5545L52.8268 68.6245L56.3728 68.1385C57.0208 73.6285 58.4428 77.0125 61.4848 77.3005C62.4928 77.3545 63.4648 76.5265 63.9148 73.0525C63.5188 72.8365 62.5648 72.2965 62.1688 71.8285C62.0248 73.8265 61.8088 74.7265 61.3948 74.6905C59.9548 74.5105 59.0008 71.8465 58.4968 67.8505L63.7168 67.1305ZM77.6488 74.2765V75.2845H70.5208V74.2765H77.6488ZM76.2808 69.4165V70.3525H70.5208V69.4165H76.2808ZM70.5208 71.8825H78.4048V67.8685H68.4688V77.3545H70.5208V76.8685H77.6488V77.3545H79.7728V72.7105H70.5208V71.8825ZM81.6628 61.7845H76.4428C76.6048 61.4785 76.7488 61.1725 76.8748 60.8665L74.8408 60.3805C74.4628 61.3165 73.8508 62.2525 73.1308 62.9905V61.7845H69.1348C69.2788 61.4965 69.4228 61.2085 69.5488 60.9205L67.5508 60.3805C67.0108 61.7485 65.9848 63.1345 64.9048 64.0345C65.3908 64.2685 66.2368 64.8445 66.6508 65.1865C67.1188 64.7185 67.6228 64.1245 68.0908 63.4585H68.3788C68.7388 64.0525 69.0628 64.7365 69.2068 65.1865L71.1328 64.6465C71.0068 64.3225 70.7908 63.8905 70.5388 63.4585H72.6448C72.5008 63.5845 72.3388 63.7105 72.1948 63.8185C72.4288 63.9265 72.7708 64.0885 73.0948 64.2685H72.3028V65.5285H65.6788V69.0925H67.6948V67.1305H79.1608V69.0925H81.2488V65.5285H74.3548V64.5565C74.6788 64.2325 75.0208 63.8725 75.3448 63.4585H76.3888C76.8208 64.0525 77.2708 64.7545 77.4688 65.2225L79.4488 64.6645C79.2868 64.3225 78.9988 63.8905 78.6928 63.4585H81.6628V61.7845ZM85.9648 69.3805C85.9828 68.7865 85.9828 68.2285 85.9828 67.6885V67.2025H87.7468V69.3805H85.9648ZM87.7468 63.1345V65.2225H85.9828V63.1345H87.7468ZM89.7268 61.1545H84.0568V67.6885C84.0568 70.3165 83.9848 73.9345 82.8688 76.3825C83.3368 76.5445 84.2188 77.0485 84.5968 77.3545C85.3348 75.7165 85.6948 73.5025 85.8568 71.3965H87.7468V74.9605C87.7468 75.2125 87.6568 75.2845 87.4408 75.2845C87.2248 75.2845 86.5588 75.3025 85.9108 75.2665C86.1808 75.8065 86.4328 76.7785 86.4868 77.3365C87.6568 77.3365 88.4308 77.2825 88.9888 76.9405C89.5828 76.5625 89.7268 75.9865 89.7268 74.9965V61.1545ZM92.7508 69.3445H92.8588C93.3988 70.9825 94.0648 72.4945 94.9468 73.8085C94.2808 74.5645 93.5608 75.1945 92.7508 75.6445V69.3445ZM97.2328 69.3445C96.9448 70.3525 96.5488 71.3065 96.0628 72.1525C95.5048 71.2885 95.0368 70.3345 94.6768 69.3445H97.2328ZM98.2768 67.3465L97.9528 67.4185H92.7508V63.1525H96.9448V64.5925C96.9448 64.8085 96.8548 64.8625 96.5668 64.8805C96.2788 64.8985 95.2168 64.8985 94.3168 64.8445C94.5688 65.3665 94.8568 66.0865 94.9468 66.6445C96.3148 66.6445 97.3408 66.6445 98.0428 66.3745C98.7988 66.0865 98.9968 65.5825 98.9968 64.6465V61.1725H90.7168V77.3545H92.7508V75.8785C93.1468 76.2745 93.5968 76.9045 93.8128 77.3185C94.6948 76.7965 95.4868 76.1485 96.1708 75.3925C96.9268 76.1665 97.7908 76.8325 98.7268 77.3545C99.0328 76.8325 99.6268 76.0765 100.059 75.6805C99.0688 75.2485 98.1688 74.5825 97.3948 73.7905C98.4028 72.1705 99.1408 70.1905 99.5548 67.7605L98.2768 67.3465ZM113.307 70.5505C113.379 70.0285 113.433 69.4885 113.487 68.9485H111.345C111.309 69.5065 111.255 70.0285 111.165 70.5505H108.537V72.3325H110.715C110.157 73.7365 109.113 74.8885 106.953 75.6805C107.403 76.0765 107.961 76.8325 108.195 77.3365C111.039 76.2205 112.317 74.4745 112.929 72.3325H115.017C114.819 74.0065 114.585 74.7805 114.333 75.0145C114.153 75.1765 114.009 75.2125 113.757 75.2125C113.469 75.2125 112.857 75.1945 112.209 75.1225C112.533 75.6805 112.767 76.5085 112.785 77.1025C113.613 77.1385 114.351 77.1205 114.801 77.0665C115.341 76.9945 115.719 76.8505 116.115 76.4365C116.637 75.8605 116.961 74.4745 117.249 71.3605C117.285 71.1085 117.321 70.5505 117.321 70.5505H113.307ZM114.099 64.1065C113.793 64.6825 113.397 65.2045 112.911 65.6365C112.317 65.1865 111.813 64.6645 111.417 64.1065H114.099ZM117.519 64.1065V62.3245H112.209C112.461 61.9105 112.677 61.4965 112.875 61.0645L110.877 60.5245C110.175 62.1805 108.843 63.8005 107.439 64.8085C107.943 65.0965 108.771 65.6725 109.185 66.0145C109.455 65.7805 109.725 65.5285 109.995 65.2405C110.373 65.7805 110.805 66.2845 111.273 66.7345C110.625 67.0765 109.869 67.3465 109.077 67.5625L109.149 67.1485L107.853 66.7165L107.565 66.8065H106.701L107.583 65.8885C107.241 65.6365 106.791 65.3665 106.269 65.0965C107.277 64.2325 108.285 63.1345 108.897 62.1265L107.529 61.2625L107.205 61.3345H101.391V63.1345H105.711C105.369 63.5305 104.973 63.9265 104.577 64.2685C104.091 64.0525 103.587 63.8545 103.155 63.6925L101.805 65.0605C102.921 65.5105 104.271 66.1945 105.279 66.8065H101.157V68.6785H103.407C102.777 70.1005 101.841 71.5045 100.851 72.3865C101.175 72.9625 101.643 73.8445 101.823 74.4565C102.687 73.6645 103.443 72.4585 104.073 71.1265V74.9785C104.073 75.1945 104.001 75.2305 103.785 75.2485C103.551 75.2485 102.831 75.2485 102.165 75.2305C102.435 75.8065 102.723 76.6705 102.777 77.2645C103.893 77.2645 104.703 77.2285 105.315 76.8865C105.945 76.5625 106.089 75.9865 106.089 75.0145V68.6785H107.043C106.881 69.5965 106.665 70.4965 106.467 71.1625L107.907 71.8285C108.231 71.0185 108.537 69.9385 108.789 68.8225C109.005 69.1105 109.185 69.3805 109.293 69.5785C110.661 69.2005 111.903 68.7145 112.965 68.0665C114.045 68.7325 115.269 69.2725 116.637 69.6145C116.925 69.0745 117.519 68.2285 117.987 67.7965C116.781 67.5625 115.665 67.2025 114.675 66.7345C115.413 65.9965 116.007 65.1325 116.475 64.1065H117.519Z" fill="white"/>
</svg>
