<svg width="159" height="137" viewBox="0 0 159 137" fill="none" xmlns="http://www.w3.org/2000/svg">
<path d="M156.057 87.6014C160.809 69.5568 162.054 24.3749 86.0038 5.01962C9.95404 -14.3356 -3.33961 41.5936 1.86192 64.4433C7.06345 87.293 8.9192 99.7203 26.4167 115.746C43.9142 131.773 75.6681 141.107 102.766 132.939C129.864 124.771 151.305 105.646 156.057 87.6014Z" fill="#1262A9"/>
<path d="M49.21 64.32C48.31 63.888 46.6 63.312 45.412 63.024L44.476 64.482C45.718 64.842 47.41 65.49 48.238 65.94L49.21 64.32ZM48.184 74.472H55.978V75.264H48.184V74.472ZM48.184 72.492H55.978V73.266H48.184V72.492ZM48.184 70.512H55.978V71.286H48.184V70.512ZM51.1 69.234C52.756 68.766 53.764 68.136 54.394 67.29C54.934 68.064 55.762 68.73 57.148 69.234H51.1ZM58.156 76.542V69.54C58.516 69.63 58.912 69.702 59.344 69.774C59.542 69.252 60.01 68.424 60.406 68.028C56.77 67.596 55.744 66.606 55.366 65.454H57.364C57.13 65.832 56.878 66.174 56.662 66.444L58.318 66.966C58.912 66.3 59.56 65.22 60.028 64.248L58.606 63.888L58.282 63.942H52.972C53.152 63.654 53.296 63.366 53.44 63.06L51.55 62.754C51.082 63.798 50.2 64.986 48.904 65.886C49.39 66.084 50.128 66.516 50.506 66.894C51.064 66.444 51.532 65.958 51.946 65.454H53.242C52.846 66.732 51.892 67.506 49.03 67.974L48.85 66.354C46.942 66.804 45.016 67.254 43.684 67.506L44.476 69.378C45.826 69 47.5 68.514 49.048 68.064L49.03 67.992C49.318 68.28 49.66 68.802 49.876 69.234H46.114V76.542H48.76C47.518 77.154 45.556 77.73 43.81 78.054C44.26 78.432 45.016 79.206 45.394 79.62C47.212 79.116 49.516 78.234 51.01 77.262L49.372 76.542H54.628L53.008 77.478C54.826 78.162 56.662 79.008 57.688 79.602L60.172 78.648C58.948 78.054 56.878 77.19 55.042 76.542H58.156ZM67.786 63.312H62.494V64.932H67.786V63.312ZM68.434 65.724H61.594V67.416H68.434V65.724ZM67.84 68.226H62.44V69.864H67.84V68.226ZM62.44 72.294H67.84V70.692H62.44V72.294ZM66.04 76.938H64.186V74.868H66.04V76.938ZM68.578 63.456V65.49H70.342V69.324V69.486H68.38V71.484H70.27C70.09 73.626 69.532 75.84 67.858 77.676V73.176H62.386V79.314H64.186V78.612H67.858V78.324C68.308 78.684 68.812 79.224 69.082 79.584C71.422 77.262 72.124 74.31 72.322 71.484H74.068V69.486H72.376V69.342V65.49H74.428C74.446 72.366 74.5 78.684 76.426 79.422C77.596 79.908 78.532 79.296 78.82 76.506C78.496 76.182 77.974 75.318 77.65 74.76C77.596 76.002 77.488 77.244 77.362 77.208C76.498 76.992 76.426 69.576 76.606 63.456H68.578ZM82.564 66.336H93.4V68.586H95.686V64.356H89.08V62.754H86.812V64.356H80.386V68.586H82.564V66.336ZM90.538 71.448C90.16 72.834 89.53 73.914 88.648 74.778C87.46 74.346 86.29 73.95 85.192 73.644C85.57 72.942 85.966 72.204 86.344 71.448H90.538ZM96.01 71.448V69.432H87.352C87.73 68.676 88.09 67.938 88.414 67.236L86.164 66.768C85.804 67.596 85.372 68.514 84.904 69.432H80.008V71.448H83.878C83.104 72.906 82.348 74.274 81.7 75.318L83.932 75.93L84.274 75.336C85.03 75.588 85.804 75.876 86.596 76.164C84.976 76.938 82.924 77.37 80.404 77.622C80.818 78.09 81.43 79.062 81.628 79.566C84.652 79.134 87.1 78.432 89.008 77.154C90.826 77.946 92.482 78.792 93.58 79.53L95.29 77.784C94.156 77.082 92.536 76.326 90.79 75.606C91.762 74.508 92.5 73.158 93.022 71.448H96.01ZM101.428 69.234C103.3 67.848 104.902 66.228 105.928 64.77C106.972 66.228 108.7 67.866 110.572 69.234H101.428ZM107.062 75.066H112.102V73.194H107.062V71.124H111.274V69.72C111.922 70.17 112.57 70.566 113.218 70.926C113.614 70.26 114.082 69.576 114.64 69C111.796 67.794 108.862 65.436 106.936 62.7H104.722C103.39 64.896 100.492 67.668 97.414 69.216C97.9 69.666 98.494 70.44 98.764 70.944C99.448 70.566 100.114 70.152 100.762 69.702V71.124H104.83V73.194H99.844V75.066H104.83V77.208H98.404V79.134H113.722V77.208H107.062V75.066Z" fill="white"/>
</svg>
